<svg width="585" height="585" viewBox="0 0 585 585" fill="none" xmlns="http://www.w3.org/2000/svg">
<path d="M37.7543 347.966C17.2482 347.966 0.624836 340.776 0.624836 331.907C0.624836 323.042 17.2482 315.851 37.7543 315.851C58.2601 315.851 74.8834 323.042 74.8834 331.907C74.8834 340.776 58.2601 347.966 37.7543 347.966Z" fill="#352F35"/>
<path d="M433.68 508.411C415.961 508.411 401.598 502.249 401.598 494.65C401.598 487.054 415.961 480.892 433.68 480.892C434.404 480.892 435.125 480.907 435.839 480.926C431.16 478.478 428.34 475.324 428.34 471.88C428.34 464.093 442.747 457.781 460.519 457.781C476.901 457.781 490.415 463.147 492.431 470.082C507.706 471.205 519.364 477.141 519.364 484.298C519.364 492.258 504.957 498.709 487.186 498.709C478.944 498.709 471.427 497.319 465.734 495.036C465.257 502.456 451.094 508.411 433.68 508.411Z" fill="#352F35"/>
<path d="M188.687 53.9748C187.182 53.9755 185.855 54.348 184.729 55.0272L184.64 54.9075C181.619 50.8541 179.992 45.7446 180.383 41.5354L180.457 40.7383C181.583 41.0484 180.771 42.8447 181.855 42.7666C188.67 42.2751 193.424 32.1766 189.918 22.4062C186.73 13.5223 179.234 6.63707 172.873 6.74971C171.255 6.77863 167.189 8.71048 166.021 9.52527C162.14 12.2317 163.563 17.3529 166.037 24.8141C167.57 29.4378 170.247 33.5328 173.357 36.4698L173.161 38.0123C172.686 41.7551 170.568 44.1398 167.522 44.3598L166.64 44.4233C162.74 37.0841 156.093 32.0031 150.457 32.6703C149.187 32.8205 145.109 34.9014 144.147 35.5848C140.424 38.232 142.097 42.8759 144.261 49.9965C147.242 59.8097 153.323 69.1562 160.139 68.6643C165.691 68.2637 170.666 60.8908 169.655 53.5148L172.95 53.2771C174.476 53.1671 176.27 54.2214 177.659 56.0455L180.977 60.3996C180.034 63.7407 180.258 68.0835 181.936 72.7394C185.105 81.5343 190.641 90.1227 196.968 90.1092C204.282 90.0935 209.234 79.5552 205.488 69.3947C202.41 61.0439 194.705 53.9729 188.687 53.9748Z" fill="#030353"/>
<path d="M476.546 578.126L422.093 547.033L483.608 511.482L538.827 542.745L476.546 578.126Z" fill="#352F35"/>
<path d="M341.093 491.774C328.169 491.774 320.513 483.419 322.913 476.927C324.009 473.953 325.263 471.216 326.645 468.697L371.53 442.785C375.15 442.86 378.428 443.337 381.15 444.08C383.215 444.647 387.079 446.341 390.781 448.271H390.785C391.273 448.526 391.757 448.785 392.238 449.044L392.242 449.048C395.857 451.015 399.053 453.099 399.898 454.41C402.034 457.733 402.105 460.211 401.077 462.208C400.724 462.888 400.251 463.515 399.68 464.097L399.665 464.112C399.394 464.386 399.102 464.656 398.794 464.916C398.749 464.949 398.707 464.987 398.662 465.021C398.358 465.272 398.043 465.516 397.712 465.753C397.66 465.79 397.566 465.847 397.446 465.922C397.404 465.948 397.341 465.986 397.292 466.012C397.198 466.072 397.1 466.128 396.973 466.2C396.894 466.249 396.796 466.301 396.706 466.354C396.578 466.425 396.454 466.496 396.312 466.579C396.199 466.643 396.071 466.714 395.948 466.785C395.794 466.868 395.636 466.958 395.467 467.052C395.328 467.127 395.185 467.21 395.035 467.292C394.844 467.397 394.641 467.51 394.427 467.627C394.273 467.713 394.119 467.799 393.958 467.886C393.732 468.01 393.499 468.137 393.259 468.269C393.079 468.37 392.895 468.468 392.707 468.573C392.467 468.7 392.219 468.836 391.967 468.975C391.75 469.091 391.539 469.207 391.318 469.327C391.081 469.455 390.83 469.59 390.586 469.726C390.323 469.864 390.068 470.003 389.797 470.15C389.602 470.255 389.395 470.368 389.196 470.473C388.528 470.833 387.833 471.205 387.112 471.592C386.932 471.689 386.76 471.783 386.576 471.881C386.283 472.038 385.979 472.2 385.678 472.361C385.381 472.519 385.092 472.677 384.788 472.834C384.432 473.026 384.064 473.225 383.696 473.42C383.455 473.548 383.219 473.672 382.975 473.803C382.599 473.998 382.22 474.201 381.841 474.404C381.57 474.547 381.296 474.689 381.022 474.836C380.654 475.031 380.282 475.226 379.911 475.425C379.633 475.572 379.355 475.718 379.077 475.865C378.675 476.075 378.274 476.289 377.868 476.499C377.617 476.634 377.365 476.766 377.113 476.897C376.697 477.115 376.284 477.333 375.867 477.551C375.6 477.689 375.337 477.828 375.075 477.964C374.658 478.185 374.237 478.403 373.82 478.621C373.591 478.741 373.366 478.857 373.141 478.974C372.664 479.221 372.187 479.469 371.714 479.717C371.646 479.751 371.583 479.785 371.519 479.818C369.63 480.795 367.756 481.76 365.932 482.691L365.894 482.71C365.406 482.957 364.925 483.202 364.448 483.446C364.279 483.532 364.107 483.618 363.938 483.705C363.491 483.93 363.052 484.151 362.612 484.373C362.428 484.463 362.241 484.561 362.06 484.651C361.632 484.865 361.216 485.075 360.799 485.282C360.607 485.376 360.42 485.469 360.232 485.563C359.834 485.762 359.44 485.958 359.053 486.149C358.858 486.247 358.662 486.341 358.467 486.434C358.099 486.618 357.735 486.795 357.378 486.971C357.187 487.061 356.999 487.152 356.815 487.242C356.458 487.414 356.109 487.583 355.771 487.745C355.606 487.827 355.448 487.903 355.283 487.978C354.941 488.143 354.6 488.304 354.273 488.458C354.145 488.518 354.025 488.575 353.901 488.631C353.559 488.789 353.222 488.95 352.906 489.093C352.872 489.108 352.842 489.123 352.809 489.138C350.601 490.144 348.971 490.813 348.209 490.978C345.697 491.526 343.316 491.774 341.093 491.774Z" fill="#352F35"/>
<path d="M273.165 499.604L44.6855 365.895L195.511 280.86V281.645L392.569 396.613L397.462 392.806V388.139L430.147 408.967L371.542 442.805C371.208 442.798 370.87 442.794 370.528 442.794C356.373 442.794 337.531 448.918 326.657 468.717L273.165 499.604Z" fill="#352F35"/>
<path d="M326.652 468.708C337.526 448.909 356.368 442.785 370.524 442.785C370.865 442.785 371.203 442.788 371.537 442.796L326.652 468.708Z" fill="#71C6D5"/>
<path d="M195.512 287.751L59.7175 360.035V366.152L256.472 481.293L256.831 481.087L256.472 475.176L195.512 287.751Z" fill="#5A5A5A"/>
<path d="M245.44 307.223L392.564 396.621L397.456 392.814V232.548L395.402 231.372L245.44 307.223Z" fill="#2E252F"/>
<path d="M201.119 120.006L195.506 123.263L200.398 277.959L245.44 307.197L392.564 236.19L397.457 232.523L201.119 120.006Z" fill="#706971"/>
<path d="M392.564 396.603L195.506 287.751L256.466 475.176L256.825 481.087L392.564 402.716V396.603Z" fill="#5A5A5A"/>
<path d="M59.7175 360.046L256.472 475.187L392.57 396.614L195.512 281.646L59.7175 360.046Z" fill="#2E252F"/>
<path d="M128.612 331.029L304.381 433.892L373.552 393.956L196.738 291.475L128.612 331.029ZM304.381 434.327L304.283 434.275L127.862 331.029L196.738 291.036L196.832 291.092L374.311 393.956L374.025 394.117L304.381 434.327Z" fill="#D8D8D8"/>
<path d="M274.771 359.764L279.794 362.7L290.77 356.362L278.236 349.029L267.258 355.367L274.771 359.764ZM279.79 363.136L266.506 355.367L278.236 348.593L291.521 356.366L279.79 363.136Z" fill="#D8D8D8"/>
<path d="M304.381 433.881L128.611 331.018L196.737 291.465L373.552 393.945L304.381 433.881Z" fill="#E5E5E5"/>
<path d="M225.19 330.746L231.226 334.279L242.203 327.941L231.015 321.397L220.038 327.735L225.19 330.746ZM231.225 334.715L219.286 327.731L231.017 320.957L242.955 327.941L231.225 334.715Z" fill="#D8D8D8"/>
<path d="M262.416 352.512L266.876 355.122L277.854 348.784L266.006 341.852L255.029 348.19L262.417 352.512H262.416ZM266.875 355.557L254.277 348.19L266.008 341.417L278.605 348.784L266.875 355.557Z" fill="#D8D8D8"/>
<path d="M231.606 334.515L243.073 341.221L254.05 334.883L242.583 328.177L231.606 334.515ZM243.071 341.66L230.854 334.515L242.585 327.741L254.802 334.887L243.071 341.66Z" fill="#D8D8D8"/>
<path d="M174.085 328.349L185.922 335.273L197.78 328.424L185.943 321.5L174.085 328.349ZM185.921 335.708L173.333 328.345L185.944 321.064L198.532 328.428L185.921 335.708Z" fill="#D8D8D8"/>
<path d="M177.655 316.243L189.573 323.212L200.629 316.833L188.711 309.86L177.655 316.243ZM189.572 323.651L176.903 316.239L188.712 309.424L201.381 316.833L189.572 323.651Z" fill="#D8D8D8"/>
<path d="M212.977 323.584L219.672 327.5L230.649 321.162L217.554 313.502L206.577 319.84L212.977 323.584ZM219.671 327.939L205.825 319.84L217.555 313.066L231.402 321.166L219.671 327.939Z" fill="#D8D8D8"/>
<path d="M201.108 316.666L206.201 319.647L217.178 313.309L204.754 306.039L193.777 312.378L201.108 316.666ZM206.2 320.082L193.024 312.378L204.755 305.604L217.93 313.309L206.2 320.082Z" fill="#D8D8D8"/>
<path d="M186.296 335.49L198.31 342.519L210.168 335.67L198.154 328.645L186.296 335.49ZM198.308 342.954L185.544 335.49L198.155 328.206L210.92 335.674L198.308 342.954Z" fill="#D8D8D8"/>
<path d="M311.229 394.367L323.789 401.715L334.843 395.332L322.283 387.984L311.229 394.367ZM323.789 402.151L310.478 394.363L322.283 387.548L335.597 395.332L323.789 402.151Z" fill="#D8D8D8"/>
<path d="M295.304 399.26L308.435 406.939L320.292 400.094L307.162 392.415L295.304 399.26ZM308.431 407.374L294.553 399.256L307.165 391.976L321.043 400.094L308.431 407.374Z" fill="#D8D8D8"/>
<path d="M265.437 396.428L277.068 403.232L289.282 396.18L283.777 392.962L277.65 389.376L265.437 396.428ZM277.068 403.671L264.685 396.428L277.65 388.941L290.033 396.184L277.068 403.671Z" fill="#D8D8D8"/>
<path d="M280.169 362.901L292.792 370.287L303.771 363.949L291.144 356.563L280.169 362.901ZM292.792 370.726L279.414 362.901L291.144 356.127L304.522 363.952L292.792 370.726Z" fill="#D8D8D8"/>
<path d="M304.837 377.33L316.248 384.002L327.224 377.664L315.816 370.992L304.837 377.33ZM316.248 384.441L310.965 381.351L304.086 377.326L315.816 370.552L327.978 377.668L316.248 384.441Z" fill="#D8D8D8"/>
<path d="M328.26 391.037L341.075 398.535L352.055 392.197L339.239 384.699L328.26 391.037ZM341.075 398.971L327.509 391.037L339.239 384.263L352.805 392.197L341.075 398.971Z" fill="#D8D8D8"/>
<path d="M293.162 370.506L304.456 377.111L315.435 370.773L304.141 364.168L293.162 370.506ZM304.456 377.55L292.411 370.503L304.141 363.733L316.186 370.777L304.456 377.55Z" fill="#D8D8D8"/>
<path d="M322.384 387.589L327.892 390.814L338.871 384.476L327.596 377.883L316.62 384.221L322.384 387.589ZM327.892 391.25L315.869 384.217L327.599 377.444L339.622 384.476L327.892 391.25Z" fill="#D8D8D8"/>
<path d="M236.07 364.626L246.709 370.847L258.566 364.002L250.8 359.459H250.8L247.928 357.777L236.07 364.626ZM246.707 371.283L235.318 364.622L247.929 357.341L259.319 364.002L246.707 371.283Z" fill="#D8D8D8"/>
<path d="M263.616 366.517L276.179 373.865L287.233 367.482L274.671 360.133L263.616 366.517ZM276.179 374.304L262.864 366.517L274.673 359.698L287.987 367.485L276.179 374.304Z" fill="#D8D8D8"/>
<path d="M251.262 359.272L263.235 366.275L274.29 359.892L262.317 352.889L251.262 359.272ZM263.233 366.71L250.51 359.268L262.319 352.45L275.042 359.892L263.233 366.71Z" fill="#D8D8D8"/>
<path d="M198.686 342.738L209.977 349.343L221.835 342.498L210.544 335.893L198.686 342.738ZM209.976 349.778L197.934 342.738L210.545 335.454L222.587 342.498L209.976 349.778Z" fill="#D8D8D8"/>
<path d="M248.029 357.382L250.902 359.06L261.956 352.677L249.677 345.494L238.623 351.877L248.029 357.382ZM250.9 359.496L237.87 351.877L249.679 345.059L262.708 352.681L250.9 359.496Z" fill="#D8D8D8"/>
<path d="M198.258 328.275L201.449 330.141L212.505 323.762L201.011 317.037L189.956 323.42L198.258 328.275ZM201.448 330.58L189.204 323.416L201.012 316.601L213.257 323.762L201.448 330.58Z" fill="#D8D8D8"/>
<path d="M287.613 380.549L299.632 387.582L310.687 381.198L298.667 374.169L287.613 380.549ZM299.632 388.017L286.858 380.549L298.667 373.73L311.441 381.202L299.632 388.017Z" fill="#D8D8D8"/>
<path d="M201.828 330.383L213.675 337.31L224.73 330.931L212.883 323.999L201.828 330.383ZM213.674 337.75L201.076 330.379L212.884 323.564L225.482 330.931L213.674 337.75Z" fill="#D8D8D8"/>
<path d="M214.039 337.524L225.566 344.267L236.622 337.884L225.095 331.141L214.039 337.524ZM225.565 344.703L213.287 337.52L225.096 330.705L237.374 337.884L225.565 344.703Z" fill="#D8D8D8"/>
<path d="M225.947 344.486L238.238 351.677L249.294 345.294L237.002 338.103L225.947 344.486ZM238.237 352.112L225.195 344.482L237.004 337.668L250.046 345.297L238.237 352.112Z" fill="#D8D8D8"/>
<path d="M276.559 374.09L287.237 380.334L298.291 373.951L287.613 367.707L276.559 374.09ZM287.234 380.77L275.808 374.086L287.617 367.267L299.042 373.955L287.234 380.77Z" fill="#D8D8D8"/>
<path d="M252.887 389.076L265.053 396.192L277.265 389.14L265.099 382.025L252.887 389.076ZM265.051 396.627L252.135 389.073L265.1 381.585L278.016 389.144L265.051 396.627Z" fill="#D8D8D8"/>
<path d="M247.085 371.049L259.327 378.209L271.185 371.364L258.942 364.204L247.085 371.049ZM259.325 378.649L246.333 371.049L258.944 363.768L271.937 371.368L259.325 378.649Z" fill="#D8D8D8"/>
<path d="M222.805 356.874L235.694 364.413L247.552 357.568L234.663 350.029L222.805 356.874ZM235.693 364.853L222.053 356.874L234.664 349.593L238.336 351.741H238.336L248.304 357.568L235.693 364.853Z" fill="#D8D8D8"/>
<path d="M210.362 349.594L222.431 356.653L234.29 349.804L222.22 342.745L210.362 349.594ZM222.43 357.088L209.61 349.59L222.221 342.309L235.042 349.808L222.43 357.088Z" fill="#D8D8D8"/>
<path d="M299.999 387.797L310.854 394.147L321.909 387.767L311.053 381.418L299.999 387.797ZM310.851 394.586L299.248 387.797L311.057 380.978L322.66 387.767L310.851 394.586Z" fill="#D8D8D8"/>
<path d="M259.707 378.444L271.278 385.214L283.136 378.365L271.564 371.599L259.707 378.444ZM271.276 385.649L258.955 378.44L271.566 371.159L283.887 378.369L271.276 385.649Z" fill="#D8D8D8"/>
<path d="M284.239 392.797L294.914 399.042L306.775 392.197L296.097 385.952L284.239 392.797ZM294.914 399.481L283.484 392.794L296.097 385.513L307.526 392.2L294.914 399.481Z" fill="#D8D8D8"/>
<path d="M271.65 385.442L283.877 392.595L295.734 385.746L283.509 378.597L271.65 385.442ZM283.873 393.03L270.898 385.442L283.509 378.158L296.485 385.75L283.873 393.03Z" fill="#D8D8D8"/>
<path d="M243.443 341.442L254.651 347.998L265.628 341.66L254.42 335.104L243.443 341.442ZM254.649 348.433L242.691 341.438L254.422 334.668L266.38 341.66L254.649 348.433Z" fill="#D8D8D8"/>
<path d="M324.172 401.937L341.827 412.262L352.881 405.883L335.226 395.553L324.172 401.937ZM341.827 412.702L341.733 412.645L323.421 401.933L335.23 395.118L353.636 405.883L341.827 412.702Z" fill="#D8D8D8"/>
<path d="M341.453 398.749L353.251 405.651L364.226 399.313L352.433 392.411L341.453 398.749ZM353.247 406.086L340.703 398.746L352.433 391.976L364.981 399.313L353.247 406.086Z" fill="#D8D8D8"/>
<path d="M308.801 407.147L329.591 419.309L341.449 412.46L320.662 400.302L308.801 407.147ZM329.587 419.745L329.494 419.688L308.05 407.147L320.662 399.867L320.756 399.919L342.2 412.464L329.587 419.745Z" fill="#D8D8D8"/>
<path d="M352.808 392.188L364.605 399.09L373.546 393.927L361.695 387.055L352.808 392.188ZM364.602 399.525L352.057 392.188L361.695 386.62L361.793 386.676L374.304 393.927L364.602 399.525Z" fill="#D8D8D8"/>
<path d="M339.632 384.474L352.448 391.972L361.335 386.84L348.46 379.379L339.632 384.474ZM352.448 392.408L338.882 384.474L348.46 378.943L348.558 378.996L362.09 386.84L352.448 392.408Z" fill="#D8D8D8"/>
<path d="M316.192 370.774L327.603 377.447L336.374 372.382L324.91 365.739L316.192 370.774ZM327.599 377.886L315.441 370.771L324.91 365.304L325.008 365.356L337.129 372.385L327.599 377.886Z" fill="#D8D8D8"/>
<path d="M296.537 414.63L316.994 426.593L329.204 419.545L302.534 403.944L290.323 410.996L296.537 414.63ZM316.994 427.033L316.9 426.976L289.572 410.992L302.538 403.509L308.515 407.004L329.959 419.545L316.994 427.033Z" fill="#D8D8D8"/>
<path d="M164.409 351.974L176.252 358.906L188.466 351.854L176.619 344.927L164.409 351.974ZM176.251 359.345L163.656 351.974L176.62 344.487L189.218 351.858L176.251 359.345Z" fill="#D8D8D8"/>
<path d="M241.033 382.146L252.512 388.859L264.723 381.808L259.221 378.59H259.221L253.244 375.094L241.033 382.146ZM252.51 389.295L240.281 382.142L253.246 374.659L265.475 381.811L252.51 389.295Z" fill="#D8D8D8"/>
<path d="M128.612 331.03L139.881 337.627L152.085 330.58L140.779 323.967L128.612 331.03ZM139.88 338.063L127.862 331.03L140.78 323.528L152.838 330.583L139.88 338.063Z" fill="#D8D8D8"/>
<path d="M291.519 356.357L304.147 363.743L312.813 358.737L300.125 351.386L291.519 356.357ZM304.147 364.178L290.768 356.353L300.125 350.95L300.223 351.006L313.567 358.737L304.147 364.178Z" fill="#D8D8D8"/>
<path d="M152.554 345.012L164.045 351.737L176.255 344.685L164.762 337.964L152.554 345.012ZM164.044 352.172L151.802 345.008L164.763 337.525L177.007 344.689L164.044 352.172Z" fill="#D8D8D8"/>
<path d="M255.493 405.258L269.134 413.241L281.368 406.178L267.726 398.199L255.493 405.258ZM269.132 413.68L269.038 413.624L254.741 405.258L267.727 397.76L282.123 406.182L269.132 413.68Z" fill="#D8D8D8"/>
<path d="M269.508 413.474L283.834 421.859L296.071 414.792L281.742 406.412L269.508 413.474ZM283.83 422.294L283.736 422.238L268.756 413.471L281.746 405.972L296.825 414.792L283.83 422.294Z" fill="#D8D8D8"/>
<path d="M191.313 367.689L255.121 405.03L267.353 397.967L203.529 360.637L191.313 367.689ZM255.12 405.466L255.025 405.413L190.561 367.689L203.53 360.198L268.105 397.971L255.12 405.466Z" fill="#D8D8D8"/>
<path d="M176.638 359.119L190.939 367.489L203.156 360.433L188.851 352.068L176.638 359.119ZM190.938 367.924L190.843 367.868L175.886 359.115L188.852 351.628L203.908 360.437L190.938 367.924Z" fill="#D8D8D8"/>
<path d="M140.254 337.831L152.169 344.804L164.376 337.756L152.458 330.787L140.254 337.831ZM152.168 345.243L139.502 337.831L152.459 330.348L165.129 337.76L152.168 345.243Z" fill="#D8D8D8"/>
<path d="M141.163 323.718L167.163 338.925L179.375 331.877L153.34 316.648L141.163 323.718ZM167.162 339.364L140.412 323.718L153.341 316.208L180.128 331.877L167.162 339.364Z" fill="#D8D8D8"/>
<path d="M167.533 339.156L180.014 346.455L192.226 339.404L179.745 332.105L167.533 339.156ZM180.013 346.891L166.781 339.152L179.746 331.669L192.979 339.408L180.013 346.891Z" fill="#D8D8D8"/>
<path d="M180.387 346.694L191.234 353.036L203.446 345.988L192.599 339.642L180.387 346.694ZM191.233 353.475L179.635 346.69L192.6 339.203L204.198 345.988L191.233 353.475Z" fill="#D8D8D8"/>
<path d="M153.714 316.442L173.719 328.142L185.577 321.297L165.538 309.574L153.714 316.442ZM173.718 328.581L173.623 328.525L152.963 316.438L165.539 309.139L186.329 321.297L173.718 328.581Z" fill="#D8D8D8"/>
<path d="M228.893 375.04L240.662 381.923L252.874 374.875L241.105 367.989L228.893 375.04ZM240.66 382.362L228.141 375.04L241.106 367.553L253.626 374.875L240.66 382.362Z" fill="#D8D8D8"/>
<path d="M216.485 367.792L228.52 374.832L240.731 367.781L235.596 364.777H235.596L228.697 360.74L216.485 367.792ZM228.519 375.268L215.733 367.788L228.698 360.305L241.484 367.781L228.519 375.268Z" fill="#D8D8D8"/>
<path d="M165.907 309.371L177.283 316.024L188.339 309.641L176.93 302.969L165.907 309.371ZM177.282 316.464L165.156 309.371L176.931 302.533L189.091 309.645L177.282 316.464Z" fill="#D8D8D8"/>
<path d="M191.617 353.26L203.533 360.229L215.745 353.181L203.829 346.208L191.617 353.26ZM203.532 360.668L190.864 353.256L203.829 345.773L216.497 353.181L203.532 360.668Z" fill="#D8D8D8"/>
<path d="M203.899 360.437L216.106 367.574L228.318 360.527L216.111 353.385L203.899 360.437ZM216.105 368.014L203.147 360.433L216.112 352.95L229.07 360.527L216.105 368.014Z" fill="#D8D8D8"/>
<path d="M177.315 302.756L193.405 312.169L204.383 305.831L188.261 296.403L177.315 302.756ZM193.404 312.605L176.564 302.756L188.262 295.963L205.135 305.835L193.404 312.605Z" fill="#D8D8D8"/>
<path d="M254.797 334.868L266.005 341.424L274.493 336.524L263.234 329.998L254.797 334.868ZM266.003 341.859L254.045 334.864L263.234 329.562L275.249 336.524L266.003 341.859Z" fill="#D8D8D8"/>
<path d="M242.961 327.947L254.427 334.657L262.862 329.787L251.343 323.111L242.961 327.947ZM254.426 335.092L242.209 327.947L251.343 322.671L263.617 329.787L254.426 335.092Z" fill="#D8D8D8"/>
<path d="M231.393 321.168L242.58 327.713L250.96 322.873L239.72 316.358L231.393 321.168ZM242.579 328.149L230.64 321.165L239.721 315.923L251.716 322.877L242.579 328.149Z" fill="#D8D8D8"/>
<path d="M266.384 341.646L278.23 348.578L286.776 343.644L274.873 336.746L266.384 341.646ZM278.23 349.013L265.632 341.646L274.873 336.311L287.53 343.644L278.23 349.013Z" fill="#D8D8D8"/>
<path d="M205.131 305.819L217.555 313.084L225.82 308.312L213.338 301.08L205.131 305.819ZM217.554 313.52L204.379 305.815L213.338 300.641L226.575 308.312L217.554 313.52Z" fill="#D8D8D8"/>
<path d="M217.931 313.311L231.027 320.971L239.353 316.165L226.198 308.539L217.931 313.311ZM231.026 321.41L217.179 313.311L226.198 308.103L240.108 316.165L231.026 321.41Z" fill="#D8D8D8"/>
<path d="M188.634 296.18L204.756 305.612L212.961 300.874L196.741 291.475L188.634 296.18ZM204.755 306.048L187.883 296.18L196.741 291.036L213.716 300.877L204.755 306.048Z" fill="#D8D8D8"/>
<path d="M278.612 348.785L291.145 356.119L299.751 351.151L287.158 343.852L278.612 348.785ZM291.145 356.554L277.861 348.785L287.161 343.416L300.506 351.151L291.145 356.554Z" fill="#D8D8D8"/>
<path d="M195.506 281.62L392.564 396.589V236.183L195.506 123.256V281.62Z" fill="#564C57"/>
<path d="M201.611 274.439V135.895L386.438 241.486V382.273L201.611 274.439Z" fill="#E5E5E5"/>
<path d="M377.241 220.932L368.793 216.089V212.222C368.793 211.802 368.707 211.395 368.553 211.02L377.241 215.722V220.932Z" fill="#706971"/>
<path d="M377.233 227.406L368.785 222.563V216.09L377.233 220.933V227.406Z" fill="#564C57"/>
<path d="M377.233 236.25L368.785 231.424V222.589L377.233 227.431V236.25Z" fill="#564C57"/>
<path d="M332.468 316.625L215.144 248.175V143.643V236.028C215.144 237.139 215.734 238.165 216.694 238.724L332.468 306.269V316.625ZM377.232 301.741L368.784 296.912V231.416L377.232 236.242V301.741Z" fill="#2E252F"/>
<path d="M215.144 236.018V128.026C215.144 125.628 217.735 124.124 219.817 125.314L367.207 209.518C368.183 210.074 368.784 211.109 368.784 212.23V322.007C368.784 324.417 366.167 325.919 364.087 324.706L216.694 238.714C215.734 238.154 215.144 237.129 215.144 236.018Z" fill="white"/>
<path d="M230.658 101.029V13.3896L256.191 27.9763V114.868L230.658 101.029Z" fill="#2E252F"/>
<path d="M255.705 114.908V57.9501L281.239 72.1283V128.748L255.705 114.908Z" fill="#564C57"/>
<path d="M281.485 128.66V89.014L307.018 102.475V142.499L281.485 128.66Z" fill="#6666FF"/>
<path d="M130.075 394.992L195.506 432.896L242.743 405.625L177.287 367.732L130.075 394.992Z" fill="#D8D8D8"/>
<path d="M130.455 394.975L163.271 413.986L178.685 405.087L145.96 386.024L130.455 394.975ZM163.271 414.421L163.176 414.369L129.7 394.975L145.961 385.584L146.056 385.641L179.439 405.087L163.271 414.421Z" fill="#5A5A5A"/>
<path d="M163.644 414.236L195.504 432.694L210.83 423.848L179.057 405.337L163.644 414.236ZM195.504 433.13L195.41 433.077L162.889 414.236L179.058 404.901L179.152 404.957L211.583 423.848L195.504 433.13Z" fill="#5A5A5A"/>
<path d="M324.786 471.522C334.474 443.328 359.312 440.016 371.057 443.474C374.545 444.499 384.518 449.898 385.949 452.294C388.81 457.074 387.034 459.811 384.214 461.981C382.828 463.044 348.904 482.584 344.886 483.523C331.294 486.707 322.552 478.026 324.786 471.522Z" fill="#706971"/>
<path d="M358.763 464.59C350.802 470.631 347.877 478.798 346.826 482.77C355.147 478.989 382.959 462.949 384.209 461.987C385.354 461.105 386.319 460.129 386.882 458.961C380.878 457.741 369.055 456.772 358.763 464.59Z" fill="#564C57"/>
<path d="M369.143 450.251C369.552 450.608 370.123 450.687 370.611 450.454C372.278 449.658 376.619 448.122 383.032 449.726C381.778 448.855 380.257 447.927 378.703 447.056C373.735 446.553 370.923 447.293 369.421 448.028C368.557 448.449 368.422 449.621 369.143 450.251Z" fill="#564C57"/>
<path d="M358.755 74.3737L325.773 55.5309C324.725 54.9328 324.361 53.599 324.958 52.5522C325.555 51.5054 326.891 51.1415 327.935 51.7397L360.921 70.5824C361.965 71.1806 362.329 72.5143 361.732 73.5611C361.135 74.608 359.802 74.9718 358.755 74.3737Z" fill="#706971"/>
<path d="M363.335 63.4695L326.879 42.6412C325.832 42.043 325.468 40.7093 326.065 39.6625C326.665 38.6157 327.998 38.2518 329.046 38.85L365.501 59.6783C366.549 60.2761 366.913 61.6098 366.316 62.657C365.715 63.7038 364.383 64.0677 363.335 63.4695Z" fill="#706971"/>
<path d="M416.932 120.535L325.773 68.4563C324.725 67.8582 324.361 66.5248 324.958 65.4776C325.555 64.4308 326.892 64.0669 327.935 64.6651L419.095 116.744C420.142 117.342 420.507 118.675 419.909 119.723C419.309 120.77 417.976 121.133 416.932 120.535Z" fill="#706971"/>
<path d="M383.83 167.153L326.13 134.191C325.071 133.585 324.71 132.229 325.334 131.18C325.942 130.156 327.26 129.808 328.296 130.399L385.993 163.362C386.879 163.867 387.296 164.918 386.999 165.894C386.59 167.234 385.043 167.848 383.83 167.153Z" fill="#706971"/>
<path d="M382.203 113.952L324.502 80.989C323.443 80.3841 323.087 79.0283 323.71 77.9792C324.318 76.9545 325.636 76.6064 326.669 77.1978L384.369 110.16C385.251 110.666 385.672 111.717 385.375 112.692C384.966 114.032 383.419 114.647 382.203 113.952Z" fill="#706971"/>
<path d="M387.7 156.533L324.844 120.622C323.797 120.024 323.432 118.69 324.029 117.643C324.626 116.597 325.963 116.233 327.007 116.831L389.866 152.742C390.546 153.13 390.966 153.854 390.966 154.637C390.966 156.314 389.157 157.365 387.7 156.533Z" fill="#706971"/>
<path d="M358.755 112.9L325.773 94.0573C324.725 93.4592 324.361 92.1255 324.958 91.0786C325.555 90.0318 326.891 89.6679 327.935 90.2657L360.921 109.109C361.965 109.707 362.329 111.04 361.732 112.088C361.135 113.134 359.802 113.498 358.755 112.9Z" fill="#706971"/>
<path d="M363.335 169.122L326.879 148.294C325.832 147.696 325.468 146.362 326.065 145.315C326.665 144.268 327.998 143.905 329.046 144.503L365.501 165.331C366.549 165.929 366.913 167.263 366.316 168.31C365.715 169.357 364.383 169.72 363.335 169.122Z" fill="#706971"/>
<path d="M380.602 138.572L325.057 106.84C324.01 106.242 323.645 104.908 324.246 103.861C324.843 102.814 326.176 102.45 327.224 103.049L382.769 134.781C383.448 135.17 383.869 135.893 383.869 136.676C383.869 138.352 382.059 139.403 380.602 138.572Z" fill="#706971"/>
<path d="M368.784 212.23C368.784 211.109 368.183 210.074 367.207 209.518L219.817 125.314C217.735 124.124 215.144 125.628 215.144 128.026V139.983L368.784 227.952V212.23Z" fill="#2E252F"/>
<path d="M226.714 137.207C227.657 138.841 227.699 140.582 226.807 141.097C225.915 141.612 224.427 140.706 223.484 139.072C222.541 137.439 222.5 135.698 223.392 135.183C224.284 134.668 225.771 135.574 226.714 137.207Z" fill="#FFFBF7"/>
<path d="M234.141 140.992C235.084 142.626 235.125 144.367 234.233 144.882C233.342 145.397 231.854 144.49 230.911 142.857C229.968 141.224 229.927 139.482 230.819 138.968C231.71 138.453 233.198 139.359 234.141 140.992Z" fill="#FFFBF7"/>
<path d="M241.853 145.313C242.796 146.946 242.838 148.687 241.946 149.203C241.054 149.717 239.566 148.811 238.624 147.178C237.681 145.544 237.639 143.803 238.531 143.288C239.423 142.773 240.911 143.68 241.853 145.313Z" fill="#FFFBF7"/>
<path d="M361.458 212.15L348.733 204.881C348.328 204.651 348.189 204.136 348.418 203.732C348.651 203.328 349.165 203.188 349.567 203.419L362.292 210.688C362.698 210.919 362.836 211.433 362.607 211.837V211.837C362.375 212.241 361.86 212.381 361.458 212.15Z" fill="#FFFBF7"/>
<path d="M361.458 215.935L348.733 208.666C348.328 208.435 348.189 207.921 348.418 207.517C348.651 207.113 349.165 206.973 349.567 207.203L362.292 214.473C362.698 214.703 362.836 215.218 362.607 215.622C362.375 216.026 361.86 216.166 361.458 215.935Z" fill="#FFFBF7"/>
<path d="M361.458 219.72L348.733 212.451C348.328 212.22 348.189 211.705 348.418 211.302C348.651 210.898 349.165 210.757 349.567 210.988L362.292 218.258C362.698 218.488 362.836 219.003 362.607 219.407C362.375 219.811 361.86 219.951 361.458 219.72Z" fill="#FFFBF7"/>
<path d="M577.786 418.697L570.739 412.614L569.578 414.521L422.457 331.476C422.296 331.386 422.198 331.217 422.198 331.037V238.811H423.79L422.348 230.985L422.198 230.175V229.616C422.198 229.465 422.131 229.33 422.026 229.237L420.907 223.16L419.465 230.985L418.023 238.811H420.392C420.392 238.811 420.159 332.28 420.403 332.419L568.384 416.481L567.555 417.844L576.194 421.314L584.838 424.779L577.786 418.697Z" fill="#2E252F"/>
<path d="M555.466 358.982C548.591 355.013 538.175 372.443 533.842 372.443C523.186 372.443 529.794 328.774 520.738 327.066C512.871 325.583 501.415 367.359 490.023 362.147L567.785 406.221C566.715 396.474 566.366 365.282 555.466 358.982Z" fill="#B0B0B0"/>
<path d="M489.11 361.612C478.011 354.039 489.058 278.875 479.686 278.045C475.698 277.692 471.309 293.387 466.615 309.082C461.535 326.077 456.102 343.071 450.447 339.695C442.021 334.671 446.174 315.079 437.605 312.398C432.138 310.686 429.642 313.9 422.147 323.659V331.484L567.777 414.026V406.201L489.11 361.612Z" fill="#8E8E93"/>
<path d="M562.48 380.603C562.3 380.085 562.063 379.555 561.759 379.034C561.582 378.726 561.391 378.437 561.192 378.166C560.786 377.614 560.34 377.149 559.885 376.773L554.64 293.784C555.192 293.942 555.71 293.919 556.138 293.672C557.178 293.071 557.362 291.351 556.72 289.466C556.54 288.948 556.303 288.415 555.999 287.893C555.823 287.585 555.631 287.296 555.432 287.026C554.084 285.201 552.304 284.258 551.144 284.84L551.061 284.885C549.736 285.648 549.8 288.238 551.2 290.664C551.317 290.863 551.437 291.058 551.565 291.242L517.171 349.363L498.231 293.769C498.303 293.739 498.374 293.713 498.442 293.672C499.482 293.071 499.669 291.351 499.024 289.466C498.847 288.948 498.607 288.415 498.306 287.893C498.126 287.585 497.938 287.296 497.739 287.026C496.391 285.201 494.608 284.258 493.448 284.84L493.369 284.885C492.663 285.291 492.355 286.215 492.426 287.356L473.123 281.074L444.376 305.113C443.047 303.393 441.338 302.518 440.212 303.085L440.129 303.126C439.927 303.246 439.758 303.412 439.619 303.614L424.374 289.241C424.457 288.513 424.34 287.634 424.029 286.714C423.848 286.196 423.612 285.663 423.308 285.141C423.131 284.833 422.94 284.544 422.741 284.273C421.393 282.448 419.613 281.506 418.453 282.088L418.37 282.133C417.045 282.899 417.109 285.486 418.509 287.912C418.952 288.682 419.482 289.346 420.034 289.864C420.244 290.059 420.458 290.236 420.672 290.394C421.674 291.115 422.699 291.351 423.447 290.919C423.548 290.859 423.642 290.788 423.728 290.705L439.179 305.267C439.176 306.337 439.54 307.643 440.268 308.909C440.711 309.678 441.241 310.339 441.793 310.861C442.003 311.056 442.217 311.233 442.431 311.387C443.434 312.108 444.459 312.348 445.206 311.916C446.246 311.315 446.43 309.596 445.788 307.707C445.638 307.272 445.439 306.825 445.202 306.382L473.45 282.764L492.776 289.053C492.956 289.583 493.196 290.127 493.504 290.664C493.951 291.434 494.476 292.095 495.032 292.617C495.239 292.812 495.453 292.988 495.667 293.142C495.982 293.367 496.298 293.54 496.605 293.668L516.799 352.945L552.582 292.474C552.631 292.519 552.676 292.571 552.725 292.617C552.841 292.725 552.958 292.827 553.074 292.921L558.32 375.91C557.801 375.763 557.313 375.774 556.904 375.981L556.821 376.022C555.496 376.788 555.56 379.375 556.96 381.805C557.403 382.574 557.933 383.235 558.485 383.757C558.695 383.952 558.909 384.129 559.123 384.283C560.126 385.004 561.151 385.244 561.898 384.812C562.938 384.211 563.122 382.492 562.48 380.603Z" fill="#E5E5E5"/>
<path d="M476.388 282.083C476.212 281.565 475.972 281.035 475.671 280.513C475.495 280.206 475.303 279.916 475.104 279.646C473.756 277.821 471.973 276.879 470.813 277.461L470.734 277.502C469.408 278.268 469.468 280.855 470.873 283.285C471.316 284.054 471.841 284.715 472.397 285.233C472.607 285.432 472.818 285.609 473.035 285.763C474.038 286.484 475.063 286.724 475.806 286.292C476.847 285.691 477.034 283.972 476.388 282.083Z" fill="#6666FF"/>
<path d="M520.092 351.32C519.916 350.798 519.675 350.269 519.375 349.747C519.198 349.439 519.007 349.15 518.808 348.879C517.46 347.054 515.676 346.112 514.516 346.694L514.437 346.735C513.112 347.501 513.172 350.088 514.576 352.518C515.019 353.287 515.545 353.948 516.101 354.47C516.311 354.665 516.521 354.842 516.739 354.996C517.742 355.721 518.767 355.957 519.51 355.525C520.55 354.925 520.738 353.205 520.092 351.32Z" fill="#6666FF"/>
<path d="M353.494 283.848V283.844C353.359 283.45 353.182 283.059 352.964 282.684C352.837 282.462 352.694 282.248 352.547 282.045C352.326 281.745 352.086 281.475 351.83 281.238L348.5 228.556C348.684 228.516 348.86 228.449 349.022 228.355C350.032 227.772 350.321 226.327 349.754 224.675C349.619 224.282 349.442 223.891 349.224 223.513C349.093 223.291 348.954 223.076 348.808 222.876C347.659 221.324 346.138 220.658 345.023 221.217L344.929 221.268C344.257 221.655 343.889 222.45 343.911 223.449C343.93 224.285 344.219 225.226 344.719 226.098L323.519 261.923L311.973 228.032C312.641 227.328 312.776 226.077 312.296 224.675C312.164 224.282 311.984 223.891 311.766 223.513C311.639 223.291 311.496 223.076 311.35 222.876C310.204 221.324 308.684 220.658 307.565 221.217L307.471 221.268C307.032 221.523 306.72 221.951 306.566 222.499L294.554 218.589L276.145 233.984C275.116 232.98 273.919 232.608 273.011 233.057L263.891 224.46C263.889 223.968 263.793 223.432 263.606 222.888C263.472 222.494 263.294 222.104 263.076 221.727C262.949 221.507 262.809 221.293 262.659 221.089C261.512 219.538 259.992 218.871 258.878 219.429C258.847 219.445 258.816 219.461 258.781 219.481C257.499 220.221 257.412 222.303 258.578 224.323C258.895 224.873 259.288 225.374 259.714 225.774C259.875 225.925 260.041 226.062 260.208 226.182C261.016 226.764 261.846 226.95 262.539 226.72L271.906 235.55C271.972 236.323 272.25 237.164 272.705 237.953C273.023 238.505 273.416 239.004 273.84 239.406C274 239.552 274.166 239.691 274.335 239.811C275.277 240.491 276.25 240.634 277.001 240.198C278.011 239.616 278.3 238.17 277.733 236.518C277.688 236.391 277.639 236.263 277.586 236.132L295.11 221.476L306.874 225.304C306.987 225.58 307.118 225.85 307.268 226.11C307.587 226.66 307.978 227.161 308.402 227.56C308.564 227.711 308.733 227.849 308.898 227.969C309.037 228.069 309.179 228.158 309.326 228.236L322.888 268.044L345.954 229.061L349.191 280.239C349.04 280.269 348.898 280.322 348.763 280.39L348.669 280.438C347.388 281.178 347.298 283.262 348.466 285.282C348.781 285.83 349.176 286.33 349.6 286.731C349.761 286.882 349.93 287.021 350.096 287.141C350.678 287.558 351.275 287.775 351.819 287.775C352.157 287.775 352.476 287.693 352.762 287.527C353.772 286.945 354.061 285.5 353.494 283.848Z" fill="#FFFBF7"/>
<path d="M236.301 237.069L223.499 186.894L226.203 186.205L238.125 232.929L259.683 221.407L260.999 223.868L236.301 237.069Z" fill="#FFFBF7"/>
<path d="M297.085 218.761C296.961 218.543 296.818 218.328 296.668 218.123C295.523 216.571 294.002 215.905 292.883 216.465L292.789 216.515C291.509 217.255 291.423 219.337 292.586 221.357C292.906 221.906 293.296 222.407 293.724 222.808C293.886 222.959 294.051 223.096 294.216 223.216C294.802 223.635 295.395 223.85 295.94 223.85C296.277 223.85 296.597 223.768 296.882 223.603C297.892 223.019 298.181 221.574 297.614 219.922C297.483 219.528 297.303 219.136 297.085 218.761Z" fill="#6666FF"/>
<path d="M239.064 233.686C238.938 233.469 238.798 233.254 238.647 233.048C237.501 231.496 235.981 230.83 234.864 231.389L234.769 231.44C233.487 232.18 233.4 234.261 234.566 236.281C234.883 236.829 235.276 237.332 235.702 237.734C235.863 237.884 236.029 238.02 236.196 238.14C236.78 238.56 237.374 238.774 237.92 238.774C238.256 238.774 238.575 238.692 238.861 238.526C239.872 237.944 240.159 236.499 239.595 234.847C239.46 234.452 239.281 234.062 239.064 233.686Z" fill="#6666FF"/>
<path d="M227.103 185.233C226.977 185.015 226.837 184.801 226.686 184.595C225.539 183.044 224.019 182.377 222.902 182.937L222.808 182.988C221.526 183.728 221.439 185.809 222.605 187.83C222.922 188.379 223.314 188.88 223.741 189.28C223.902 189.431 224.068 189.568 224.235 189.689C224.819 190.108 225.412 190.322 225.958 190.322C226.295 190.322 226.614 190.241 226.9 190.075C227.91 189.492 228.198 188.047 227.633 186.394C227.498 186 227.32 185.609 227.103 185.233Z" fill="#6666FF"/>
<path d="M325.984 264.872C325.849 264.478 325.672 264.088 325.454 263.712C325.327 263.491 325.188 263.277 325.038 263.074C323.892 261.523 322.372 260.858 321.253 261.418L321.159 261.467C319.878 262.206 319.788 264.29 320.956 266.31C321.275 266.859 321.666 267.358 322.094 267.76C322.251 267.91 322.42 268.049 322.586 268.169C323.171 268.586 323.765 268.8 324.309 268.8C324.647 268.8 324.966 268.721 325.252 268.556C326.262 267.97 326.551 266.528 325.984 264.872Z" fill="#6666FF"/>
<path d="M465.99 565.37L513.59 537.888C514.239 537.517 514.63 536.822 514.615 536.078L514.637 532.312L477.431 513.767L426.039 540.727V544.129C426.039 545 426.504 545.803 427.259 546.243L460.365 565.37C462.104 566.376 464.252 566.376 465.99 565.37Z" fill="#5A5A5A"/>
<path d="M465.482 561.915L513.72 534.062C514.944 533.356 514.944 531.591 513.72 530.889L479.401 511.15C478.181 510.448 476.683 510.452 475.463 511.154L426.954 539.161C425.734 539.863 425.734 541.628 426.954 542.334L460.871 561.915C462.298 562.737 464.055 562.737 465.482 561.915Z" fill="#564C57"/>
<path fill-rule="evenodd" clip-rule="evenodd" d="M508.928 532.488L477.437 514.374L468.421 519.582L500.153 537.549L508.928 532.488Z" fill="url(#paint0_linear)"/>
<path d="M508.928 532.488L477.437 514.374L468.421 519.582L500.153 537.549L508.928 532.488Z" fill="#2E252F"/>
<path d="M477.437 515.82L507.674 533.209L508.928 532.488L477.437 514.374L468.421 519.582L469.683 520.296L477.437 515.82Z" fill="#5A5A5A"/>
<path fill-rule="evenodd" clip-rule="evenodd" d="M463.769 539.691L470.712 543.622L477.215 539.886L470.273 535.955L463.769 539.691ZM470.716 544.707L461.869 539.694L470.269 534.869L479.119 539.878L470.716 544.707Z" fill="url(#paint1_linear)"/>
<path d="M485.757 535.512L478.169 539.871L487.214 544.993L494.784 540.626L485.757 535.512Z" fill="#6666FF"/>
<path d="M470.481 526.717L463.062 522.515L455.496 526.886L462.893 531.076L470.481 526.717Z" fill="#2E252F"/>
<path d="M439.828 535.941L431.752 540.604L439.025 544.802L447.192 540.108L439.828 535.941Z" fill="#2E252F"/>
<path d="M462.833 539.864L470.73 544.336L478.179 540.055L470.283 535.583L462.833 539.864Z" fill="#2E252F"/>
<path d="M470.278 535.587L478.174 540.059L485.763 535.699L477.866 531.227L470.278 535.587Z" fill="#2E252F"/>
<path d="M454.585 544.607L462.482 549.079L470.727 544.34L462.831 539.868L454.585 544.607Z" fill="#2E252F"/>
<path d="M477.869 531.236L470.475 527.05L462.887 531.409L470.28 535.596L477.869 531.236Z" fill="#2E252F"/>
<path d="M455.44 535.691L447.194 540.429L454.588 544.616L462.833 539.877L455.44 535.691Z" fill="#2E252F"/>
<path d="M470.285 535.593L462.892 531.406L455.442 535.687L462.836 539.873L470.285 535.593Z" fill="#2E252F"/>
<path d="M455.43 535.371L448.048 531.192L439.821 535.941L447.184 540.109L455.43 535.371Z" fill="#2E252F"/>
<path d="M470.724 544.327L479.788 549.46L487.219 545.168L478.174 540.047L470.724 544.327Z" fill="#2E252F"/>
<path d="M462.476 549.07L471.559 554.214L479.786 549.464L470.722 544.331L462.476 549.07Z" fill="#2E252F"/>
<path d="M454.157 553.856L463.176 559.064L471.557 554.224L462.474 549.08L454.157 553.856Z" fill="#2E252F"/>
<path d="M454.593 544.617L446.355 549.352L454.173 553.865L462.49 549.089L454.593 544.617Z" fill="#2E252F"/>
<path d="M462.883 531.097L455.486 526.907L448.051 531.199L455.433 535.378L462.883 531.097Z" fill="#2E252F"/>
<path d="M447.185 540.118L439.018 544.812L446.34 549.036L454.578 544.305L447.185 540.118Z" fill="#2E252F"/>
<path d="M479.783 548.755L471.673 544.163L478.176 540.427L486.272 545.008L479.783 548.755ZM471.56 553.505L463.427 548.898L467.295 546.679L470.723 544.708L478.837 549.3L471.56 553.505ZM463.18 558.342L455.107 553.682L462.477 549.446L470.61 554.05L463.18 558.342ZM447.285 549.165L449.294 548.012L454.581 544.974L458.554 547.224L461.524 548.906L454.164 553.137L447.285 549.165ZM439.964 544.937L442.254 543.623L447.188 540.788L453.627 544.434L449.591 546.754L446.343 548.62L439.964 544.937ZM432.69 540.739L439.828 536.62L446.234 540.247L440.996 543.258L439.021 544.392L432.69 540.739ZM448.055 531.87L454.483 535.508L449.846 538.171L447.184 539.703L440.775 536.072L448.055 531.87ZM455.486 527.578L456.462 528.13L461.933 531.228L458.681 533.098L455.43 534.964L449.001 531.322L455.486 527.578ZM463.056 523.208L469.521 526.869L462.883 530.684L456.436 527.03L463.056 523.208ZM470.475 527.409L476.915 531.055L473.93 532.771L470.276 534.87L467.16 533.105L463.837 531.224L470.475 527.409ZM463.777 539.691L470.28 535.955L477.223 539.887L470.719 543.623L463.777 539.691ZM456.819 543.69L462.827 540.236L469.773 544.167L466.056 546.304L462.474 548.361L459.545 546.702L455.531 544.43L456.819 543.69ZM456.383 535.505L458.388 534.352L462.887 531.769L466.319 533.714L469.326 535.415L462.823 539.151L459.605 537.326L456.383 535.505ZM458.892 538.009L461.877 539.695L458.02 541.91L454.577 543.889L448.138 540.243L453.567 537.123L455.433 536.049L458.892 538.009ZM477.865 531.596L484.807 535.527L481.218 537.589L478.173 539.342L471.23 535.411L474.549 533.503L477.865 531.596ZM487.041 544.362L479.126 539.879L482.299 538.058L485.761 536.068L493.838 540.641L487.218 544.464L487.041 544.362ZM495.738 540.63L485.757 534.983L477.861 530.511L470.471 526.324L463.052 522.123L455.482 526.493L448.051 530.785L439.825 535.535L430.806 540.739L438.075 544.937L445.397 549.165L453.218 553.678L463.18 559.43L471.564 554.59L479.787 549.841H479.791L487.222 545.549L495.738 540.63Z" fill="#706971"/>
<path d="M488.247 461.969C488.247 468.998 478.157 474.694 465.71 474.694C453.267 474.694 443.177 468.998 443.177 461.969C443.177 460.688 443.294 456.34 443.294 456.34C446.095 451.114 455.538 449.247 465.71 449.247C476.25 449.247 485.355 452.326 488.247 457.636C488.442 458 488.247 461.969 488.247 461.969Z" fill="#FFA403"/>
<path d="M488.243 457.152C488.243 464.181 478.154 469.877 465.707 469.877C453.263 469.877 443.32 464.433 443.32 457.404C443.32 450.379 453.263 444.427 465.707 444.427C478.154 444.427 488.243 450.127 488.243 457.152Z" fill="#FEDF27"/>
<path d="M488.247 454.76C488.247 461.789 478.157 467.485 465.71 467.485C453.267 467.485 443.177 461.789 443.177 454.76C443.177 453.476 443.294 449.128 443.294 449.128C446.095 443.901 455.538 442.035 465.71 442.035C476.25 442.035 485.355 445.118 488.247 450.427C488.442 450.791 488.247 454.76 488.247 454.76Z" fill="#FFA403"/>
<path d="M488.243 449.94C488.243 456.965 478.154 462.665 465.707 462.665C453.263 462.665 443.32 457.22 443.32 450.191C443.32 443.166 453.263 437.215 465.707 437.215C478.154 437.215 488.243 442.911 488.243 449.94Z" fill="#FEDF27"/>
<path fill-rule="evenodd" clip-rule="evenodd" d="M488.247 447.547C488.247 454.573 478.157 460.269 465.71 460.269C453.267 460.269 443.177 454.573 443.177 447.547C443.177 446.263 443.294 441.915 443.294 441.915C446.095 436.689 455.538 434.822 465.71 434.822C476.25 434.822 485.355 437.901 488.247 443.214C488.442 443.579 488.247 447.547 488.247 447.547Z" fill="url(#paint2_linear)"/>
<path d="M488.243 442.723C488.243 449.752 478.154 455.449 465.707 455.449C453.263 455.449 443.32 450.004 443.32 442.979C443.32 435.95 453.263 430.002 465.707 430.002C478.154 430.002 488.243 435.698 488.243 442.723Z" fill="#FFE67D"/>
<path d="M488.247 447.547C488.247 454.573 478.157 460.269 465.71 460.269C453.267 460.269 443.177 454.573 443.177 447.547C443.177 446.263 443.294 441.915 443.294 441.915C446.095 436.689 455.538 434.822 465.71 434.822C476.25 434.822 485.355 437.901 488.247 443.214C488.442 443.579 488.247 447.547 488.247 447.547Z" fill="#FFA403"/>
<path d="M488.243 442.723C488.243 449.752 478.154 455.449 465.707 455.449C453.263 455.449 443.32 450.004 443.32 442.979C443.32 435.95 453.263 430.002 465.707 430.002C478.154 430.002 488.243 435.698 488.243 442.723Z" fill="#FEDF27"/>
<path d="M488.247 440.295C488.247 447.324 478.157 453.021 465.71 453.021C453.267 453.021 443.177 447.324 443.177 440.295C443.177 439.011 443.294 434.667 443.294 434.667C446.095 429.437 455.538 427.574 465.71 427.574C476.25 427.574 485.355 430.653 488.247 435.962C488.442 436.327 488.247 440.295 488.247 440.295Z" fill="#FFA403"/>
<path d="M488.243 435.479C488.243 442.508 478.154 448.204 465.707 448.204C453.263 448.204 443.32 442.76 443.32 435.731C443.32 428.705 453.263 422.754 465.707 422.754C478.154 422.754 488.243 428.45 488.243 435.479Z" fill="#FEDF27"/>
<path d="M488.247 433.087C488.247 440.112 478.157 445.812 465.71 445.812C453.267 445.812 443.177 440.112 443.177 433.087C443.177 431.803 443.294 427.454 443.294 427.454C446.095 422.228 455.538 420.362 465.71 420.362C476.25 420.362 485.355 423.444 488.247 428.754C488.442 429.118 488.247 433.087 488.247 433.087Z" fill="#FFA403"/>
<path d="M488.243 428.266C488.243 435.292 478.154 440.988 465.707 440.988C453.263 440.988 443.32 435.547 443.32 428.518C443.32 421.489 453.263 415.541 465.707 415.541C478.154 415.541 488.243 421.237 488.243 428.266Z" fill="#FEDF27"/>
<path d="M488.247 426.338C488.247 433.364 478.157 439.06 465.71 439.06C453.267 439.06 443.177 433.364 443.177 426.338C443.177 425.054 443.294 420.706 443.294 420.706C446.095 415.479 455.538 413.613 465.71 413.613C476.25 413.613 485.355 416.692 488.247 422.005C488.442 422.37 488.247 426.338 488.247 426.338Z" fill="#FFA403"/>
<path d="M488.243 421.514C488.243 428.543 478.154 434.239 465.707 434.239C453.263 434.239 443.32 428.795 443.32 421.77C443.32 414.741 453.263 408.793 465.707 408.793C478.154 408.793 488.243 414.489 488.243 421.514Z" fill="#FEDF27"/>
<path d="M488.247 419.59C488.247 426.615 478.157 432.311 465.71 432.311C453.267 432.311 443.177 426.615 443.177 419.59C443.177 418.306 443.294 413.958 443.294 413.958C446.095 408.731 455.538 406.865 465.71 406.865C476.25 406.865 485.355 409.944 488.247 415.257C488.442 415.621 488.247 419.59 488.247 419.59Z" fill="#FFA403"/>
<path d="M488.243 414.802C488.243 421.831 478.154 427.527 465.707 427.527C453.263 427.527 443.32 422.082 443.32 415.057C443.32 408.028 453.263 402.08 465.707 402.08C478.154 402.08 488.243 407.776 488.243 414.802Z" fill="#FEDF27"/>
<path d="M488.247 412.874C488.247 419.903 478.157 425.599 465.71 425.599C453.267 425.599 443.177 419.903 443.177 412.874C443.177 411.593 443.294 407.245 443.294 407.245C446.095 402.018 455.538 400.152 465.71 400.152C476.25 400.152 485.355 403.231 488.247 408.541C488.442 408.905 488.247 412.874 488.247 412.874Z" fill="#FFA403"/>
<path d="M488.243 408.057C488.243 415.086 478.154 420.782 465.707 420.782C453.263 420.782 443.32 415.338 443.32 408.312C443.32 401.283 453.263 395.332 465.707 395.332C478.154 395.332 488.243 401.032 488.243 408.057Z" fill="#FEDF27"/>
<path d="M488.3 406.125C488.3 413.154 478.211 418.85 465.767 418.85C453.32 418.85 443.231 413.154 443.231 406.125C443.231 404.841 443.347 400.497 443.347 400.497C446.149 395.266 455.596 393.404 465.767 393.404C476.303 393.404 485.413 396.483 488.3 401.792C488.499 402.156 488.3 406.125 488.3 406.125Z" fill="#FFA403"/>
<path d="M488.296 401.309C488.296 408.338 478.207 414.034 465.764 414.034C453.317 414.034 443.374 408.589 443.374 401.56C443.374 394.535 453.317 388.584 465.764 388.584C478.207 388.584 488.296 394.28 488.296 401.309Z" fill="#FEDF27"/>
<path d="M466.388 411.612C454.395 411.612 446.337 406.277 446.337 401.294C446.337 396.312 454.395 390.976 466.388 390.976C478.381 390.976 486.435 396.312 486.435 401.294C486.435 406.277 478.381 411.612 466.388 411.612Z" fill="#EAA428"/>
<path fill-rule="evenodd" clip-rule="evenodd" d="M466.466 411.646C454.665 411.672 446.724 406.689 446.712 402.018C446.701 397.347 454.616 392.327 466.418 392.297C478.219 392.267 486.16 397.25 486.172 401.921C486.183 406.592 478.268 411.616 466.466 411.646Z" fill="url(#paint3_linear)"/>
<path d="M488.218 399.595C488.218 406.62 478.162 412.32 465.76 412.32C453.358 412.32 443.302 406.62 443.302 399.595C443.302 398.311 443.419 393.963 443.419 393.963C446.212 388.736 455.622 386.87 465.76 386.87C476.262 386.87 485.338 389.953 488.218 395.262C488.413 395.626 488.218 399.595 488.218 399.595Z" fill="#FFA403"/>
<path d="M488.218 394.775C488.218 401.8 478.162 407.496 465.76 407.496C453.358 407.496 443.302 401.8 443.302 394.775C443.302 387.746 453.358 382.05 465.76 382.05C478.162 382.05 488.218 387.746 488.218 394.775Z" fill="#FEDF27"/>
<path d="M465.763 405.11C453.77 405.11 445.713 399.778 445.713 394.796C445.713 389.813 453.77 384.478 465.763 384.478C477.756 384.478 485.814 389.813 485.814 394.796C485.814 399.778 477.756 405.11 465.763 405.11Z" fill="#D87501"/>
<path d="M465.838 405.112C454.036 405.142 446.099 400.159 446.088 395.488C446.072 390.817 453.988 385.793 465.789 385.763C477.59 385.737 485.532 390.719 485.543 395.39C485.554 400.061 477.639 405.085 465.838 405.112Z" fill="#FFBE04"/>
<path d="M510.848 474.898C510.848 481.923 500.759 487.619 488.312 487.619C475.868 487.619 465.779 481.923 465.779 474.898C465.779 473.614 465.895 469.266 465.895 469.266C468.697 464.039 478.14 462.173 488.312 462.173C498.852 462.173 507.961 465.252 510.848 470.565C511.047 470.929 510.848 474.898 510.848 474.898Z" fill="#FFA403"/>
<path d="M510.845 470.074C510.845 477.103 500.755 482.799 488.308 482.799C475.865 482.799 465.922 477.355 465.922 470.329C465.922 463.3 475.865 457.353 488.308 457.353C500.755 457.353 510.845 463.049 510.845 470.074Z" fill="#FEDF27"/>
<path d="M510.848 468.146C510.848 475.175 500.759 480.871 488.312 480.871C475.868 480.871 465.779 475.175 465.779 468.146C465.779 466.865 465.895 462.517 465.895 462.517C468.697 457.291 478.14 455.424 488.312 455.424C498.852 455.424 507.961 458.503 510.848 463.813C511.047 464.177 510.848 468.146 510.848 468.146Z" fill="#FFA403"/>
<path d="M510.845 463.329C510.845 470.358 500.755 476.054 488.308 476.054C475.865 476.054 465.922 470.61 465.922 463.585C465.922 456.556 475.865 450.604 488.308 450.604C500.755 450.604 510.845 456.304 510.845 463.329Z" fill="#FEDF27"/>
<path d="M510.848 461.433C510.848 468.462 500.759 474.158 488.312 474.158C475.868 474.158 465.779 468.462 465.779 461.433C465.779 460.149 465.895 455.805 465.895 455.805C468.697 450.574 478.14 448.712 488.312 448.712C498.852 448.712 507.961 451.791 510.848 457.1C511.047 457.464 510.848 461.433 510.848 461.433Z" fill="#FFA403"/>
<path d="M510.845 456.617C510.845 463.646 500.755 469.342 488.308 469.342C475.865 469.342 465.922 463.897 465.922 456.868C465.922 449.843 475.865 443.892 488.308 443.892C500.755 443.892 510.845 449.588 510.845 456.617Z" fill="#FEDF27"/>
<path d="M510.848 454.689C510.848 461.718 500.759 467.414 488.312 467.414C475.868 467.414 465.779 461.718 465.779 454.689C465.779 453.404 465.895 449.056 465.895 449.056C468.697 443.83 478.14 441.964 488.312 441.964C498.852 441.964 507.961 445.046 510.848 450.356C511.047 450.72 510.848 454.689 510.848 454.689Z" fill="#FFA403"/>
<path d="M510.845 449.868C510.845 456.894 500.755 462.593 488.308 462.593C475.865 462.593 465.922 457.149 465.922 450.12C465.922 443.095 475.865 437.143 488.308 437.143C500.755 437.143 510.845 442.839 510.845 449.868Z" fill="#FEDF27"/>
<path d="M510.902 447.94C510.902 454.969 500.813 460.665 488.369 460.665C475.922 460.665 465.833 454.969 465.833 447.94C465.833 446.656 465.949 442.308 465.949 442.308C468.75 437.081 478.197 435.215 488.369 435.215C498.905 435.215 508.014 438.298 510.902 443.607C511.101 443.971 510.902 447.94 510.902 447.94Z" fill="#FFA403"/>
<path d="M510.894 443.12C510.894 450.145 500.805 455.841 488.362 455.841C475.914 455.841 465.975 450.401 465.975 443.372C465.975 436.346 475.914 430.395 488.362 430.395C500.805 430.395 510.894 436.091 510.894 443.12Z" fill="#FEDF27"/>
<path d="M488.99 453.456C476.997 453.456 468.939 448.124 468.939 443.141C468.939 438.158 476.997 432.823 488.99 432.823C500.983 432.823 509.04 438.158 509.04 443.141C509.04 448.124 500.983 453.456 488.99 453.456Z" fill="#EAA428"/>
<path fill-rule="evenodd" clip-rule="evenodd" d="M489.064 453.457C477.263 453.487 469.325 448.504 469.314 443.833C469.299 439.162 477.214 434.138 489.015 434.108C500.817 434.082 508.758 439.065 508.77 443.736C508.781 448.407 500.866 453.431 489.064 453.457Z" fill="url(#paint4_linear)"/>
<path d="M510.815 441.406C510.815 448.431 500.76 454.127 488.358 454.127C475.956 454.127 465.904 448.431 465.904 441.406C465.904 440.122 466.017 435.774 466.017 435.774C468.81 430.547 478.224 428.681 488.358 428.681C498.86 428.681 507.935 431.76 510.815 437.073C511.011 437.437 510.815 441.406 510.815 441.406Z" fill="#FFA403"/>
<path d="M510.815 436.582C510.815 443.611 500.76 449.307 488.358 449.307C475.956 449.307 465.904 443.611 465.904 436.582C465.904 429.557 475.956 423.861 488.358 423.861C500.76 423.861 510.815 429.557 510.815 436.582Z" fill="#FFF59C"/>
<path d="M488.361 446.921C476.368 446.921 468.314 441.586 468.314 436.603C468.314 431.624 476.368 426.289 488.361 426.289C500.354 426.289 508.412 431.624 508.412 436.603C508.412 441.586 500.354 446.921 488.361 446.921Z" fill="#D87501"/>
<path d="M488.434 446.902C476.633 446.932 468.304 441.935 468.684 437.275C469.108 432.022 476.85 427.234 488.389 427.554C500.183 427.88 508.128 432.506 508.139 437.181C508.151 441.852 500.235 446.872 488.434 446.902Z" fill="#FFBE04"/>
<path d="M449.399 490.787C449.399 497.816 439.31 503.512 426.862 503.512C414.419 503.512 404.33 497.816 404.33 490.787C404.33 489.503 404.446 485.155 404.446 485.155C407.247 479.928 416.691 478.062 426.862 478.062C437.402 478.062 446.511 481.144 449.399 486.454C449.594 486.818 449.399 490.787 449.399 490.787Z" fill="#FFA403"/>
<path d="M449.395 485.967C449.395 492.992 439.306 498.692 426.859 498.692C414.415 498.692 404.473 493.247 404.473 486.218C404.473 479.193 414.415 473.242 426.859 473.242C439.306 473.242 449.395 478.938 449.395 485.967Z" fill="#FEDF27"/>
<path d="M449.399 483.574C449.399 490.6 439.31 496.296 426.862 496.296C414.419 496.296 404.33 490.6 404.33 483.574C404.33 482.29 404.446 477.942 404.446 477.942C407.247 472.716 416.691 470.849 426.862 470.849C437.402 470.849 446.511 473.928 449.399 479.241C449.594 479.606 449.399 483.574 449.399 483.574Z" fill="#FFA403"/>
<path d="M449.395 478.75C449.395 485.779 439.306 491.475 426.859 491.475C414.415 491.475 404.473 486.031 404.473 479.006C404.473 471.977 414.415 466.029 426.859 466.029C439.306 466.029 449.395 471.725 449.395 478.75Z" fill="#FEDF27"/>
<path d="M449.399 476.822C449.399 483.851 439.31 489.547 426.862 489.547C414.419 489.547 404.33 483.851 404.33 476.822C404.33 475.542 404.446 471.194 404.446 471.194C407.247 465.967 416.691 464.101 426.862 464.101C437.402 464.101 446.511 467.18 449.399 472.489C449.594 472.857 449.399 476.822 449.399 476.822Z" fill="#FFA403"/>
<path d="M449.395 472.006C449.395 479.035 439.306 484.731 426.859 484.731C414.415 484.731 404.473 479.286 404.473 472.261C404.473 465.232 414.415 459.281 426.859 459.281C439.306 459.281 449.395 464.981 449.395 472.006Z" fill="#FEDF27"/>
<path d="M449.399 470.074C449.399 477.103 439.31 482.799 426.862 482.799C414.419 482.799 404.33 477.103 404.33 470.074C404.33 468.79 404.446 464.445 404.446 464.445C407.247 459.215 416.691 457.353 426.862 457.353C437.402 457.353 446.511 460.432 449.399 465.741C449.594 466.105 449.399 470.074 449.399 470.074Z" fill="#FFA403"/>
<path d="M449.395 465.257C449.395 472.286 439.306 477.982 426.859 477.982C414.415 477.982 404.473 472.538 404.473 465.509C404.473 458.484 414.415 452.532 426.859 452.532C439.306 452.532 449.395 458.232 449.395 465.257Z" fill="#FEDF27"/>
<path d="M449.399 463.329C449.399 470.358 439.31 476.054 426.862 476.054C414.419 476.054 404.33 470.358 404.33 463.329C404.33 462.045 404.446 457.697 404.446 457.697C407.247 452.47 416.691 450.604 426.862 450.604C437.402 450.604 446.511 453.687 449.399 458.996C449.594 459.36 449.399 463.329 449.399 463.329Z" fill="#FFA403"/>
<path d="M449.395 458.545C449.395 465.574 439.306 471.27 426.859 471.27C414.415 471.27 404.473 465.825 404.473 458.796C404.473 451.771 414.415 445.82 426.859 445.82C439.306 445.82 449.395 451.516 449.395 458.545Z" fill="#FEDF27"/>
<path d="M449.435 456.617C449.435 463.646 439.345 469.342 426.902 469.342C414.455 469.342 404.366 463.646 404.366 456.617C404.366 455.333 404.482 450.984 404.482 450.984C407.283 445.758 416.73 443.892 426.902 443.892C437.438 443.892 446.547 446.974 449.435 452.284C449.634 452.648 449.435 456.617 449.435 456.617Z" fill="#FFA403"/>
<path d="M449.431 451.796C449.431 458.822 439.342 464.521 426.898 464.521C414.451 464.521 404.508 459.077 404.508 452.048C404.508 445.023 414.451 439.071 426.898 439.071C439.342 439.071 449.431 444.767 449.431 451.796Z" fill="#FEDF27"/>
<path d="M427.54 462.096C415.548 462.096 407.49 456.764 407.49 451.782C407.49 446.799 415.548 441.464 427.54 441.464C439.533 441.464 447.587 446.799 447.587 451.782C447.587 456.764 439.533 462.096 427.54 462.096Z" fill="#EAA428"/>
<path fill-rule="evenodd" clip-rule="evenodd" d="M427.619 462.094C415.817 462.124 407.876 457.141 407.865 452.47C407.853 447.799 415.769 442.775 427.57 442.749C439.371 442.719 447.313 447.702 447.324 452.373C447.335 457.044 439.42 462.068 427.619 462.094Z" fill="url(#paint5_linear)"/>
<path d="M449.352 450.083C449.352 457.108 439.297 462.804 426.894 462.804C414.492 462.804 404.437 457.108 404.437 450.083C404.437 448.798 404.553 444.45 404.553 444.45C407.347 439.224 416.756 437.357 426.894 437.357C437.397 437.357 446.472 440.436 449.352 445.749C449.547 446.114 449.352 450.083 449.352 450.083Z" fill="#FFA403"/>
<path d="M449.352 445.259C449.352 452.288 439.297 457.984 426.894 457.984C414.492 457.984 404.437 452.288 404.437 445.259C404.437 438.233 414.492 432.537 426.894 432.537C439.297 432.537 449.352 438.233 449.352 445.259Z" fill="#FFF59C"/>
<path d="M426.894 455.562C414.901 455.562 406.847 450.227 406.847 445.244C406.847 440.265 414.901 434.93 426.894 434.93C438.887 434.93 446.945 440.265 446.945 445.244C446.945 450.227 438.887 455.562 426.894 455.562Z" fill="#D87501"/>
<path d="M426.972 455.564C415.171 455.594 407.233 450.611 407.222 445.94C407.211 441.265 415.122 436.245 426.924 436.215C438.725 436.185 446.666 441.168 446.678 445.842C446.689 450.513 438.774 455.534 426.972 455.564Z" fill="#FFBE04"/>
<path d="M431.642 448.675L428.341 450.046L425.555 447.001L428.751 445.672C429.821 445.225 430.733 445.011 431.488 445.026C432.243 445.037 432.862 445.307 433.343 445.837C434.285 446.866 433.718 447.812 431.642 448.675ZM421.868 442.968C421.868 442.968 426.22 441.023 426.922 440.971C427.628 440.918 428.221 441.155 428.702 441.68C428.927 441.928 429.044 442.187 429.055 442.457C429.092 442.829 428.946 443.152 428.619 443.426C428.293 443.7 427.748 443.993 426.982 444.312L424.166 445.48L421.868 442.968ZM431.281 443.392C432.355 442.277 432.415 441.196 431.458 440.152C431.18 439.848 430.846 439.589 430.452 439.375C430.057 439.165 429.618 439.003 429.134 438.89C428.653 438.782 428.165 438.725 427.673 438.729C427.091 438.725 426.505 438.804 425.92 438.966C425.739 439.014 425.082 439.258 424.256 439.574L422.983 438.357L420.077 439.108V439.589L421.162 440.775C420.776 440.926 420.438 441.061 420.171 441.166L419.108 440.002L416.086 440.802V441.282L417.126 442.42L415.47 442.623V443.107L417.347 445.214L419.037 444.511L424.808 450.819L423.122 451.041V451.522L425.037 453.613L426.719 452.915L427.651 453.928L430.673 452.648V452.167L429.761 451.649L430.733 451.244L431.642 452.235L434.665 450.955V450.474L433.771 449.978C434.334 449.731 434.826 449.49 435.247 449.257C435.795 448.953 436.242 448.642 436.583 448.315C437.116 447.786 437.387 447.196 437.394 446.546C437.402 445.901 437.135 445.281 436.602 444.699C435.446 443.438 433.673 442.998 431.281 443.392Z" fill="#D87501"/>
<path d="M431.642 448.211L428.341 449.582L425.555 446.533L428.751 445.204C429.821 444.761 430.733 444.547 431.488 444.562C432.243 444.573 432.862 444.843 433.343 445.373C434.285 446.402 433.718 447.348 431.642 448.211ZM421.868 442.504C421.868 442.504 426.22 440.559 426.922 440.506C427.628 440.45 428.221 440.69 428.702 441.216C428.927 441.464 429.044 441.723 429.055 441.993C429.092 442.365 428.946 442.688 428.619 442.962C428.293 443.232 427.748 443.529 426.982 443.848L424.166 445.016L421.868 442.504ZM431.281 442.928C432.355 441.813 432.415 440.732 431.458 439.688C431.18 439.384 430.846 439.125 430.452 438.911C430.057 438.7 429.618 438.535 429.134 438.426C428.653 438.314 428.165 438.261 427.673 438.261C427.091 438.261 426.505 438.34 425.92 438.498C425.739 438.546 425.082 438.794 424.256 439.11L422.983 437.893L420.077 439.125L421.162 440.311C420.776 440.461 420.438 440.597 420.171 440.698L419.108 439.534L416.086 440.818L417.126 441.952L415.47 442.639L417.347 444.749L419.037 444.047L424.808 450.355L423.122 451.057L425.037 453.149L426.719 452.447L427.651 453.464L430.673 452.184L429.761 451.185L430.733 450.78L431.642 451.771L434.665 450.491L433.771 449.514C434.334 449.266 434.826 449.026 435.247 448.793C435.795 448.489 436.242 448.174 436.583 447.851C437.116 447.321 437.387 446.732 437.394 446.082C437.402 445.433 437.135 444.817 436.602 444.235C435.446 442.97 433.673 442.534 431.281 442.928Z" fill="#FFFB61"/>
<path d="M470.293 398.116L466.993 399.491L464.207 396.442L467.402 395.113C468.472 394.666 469.385 394.452 470.139 394.467C470.894 394.478 471.514 394.752 471.998 395.278C472.94 396.307 472.37 397.253 470.293 398.116ZM460.519 392.409C460.519 392.409 464.871 390.464 465.577 390.411C466.279 390.359 466.873 390.595 467.353 391.121C467.578 391.369 467.699 391.628 467.706 391.898C467.744 392.27 467.597 392.593 467.271 392.867C466.944 393.141 466.399 393.434 465.634 393.753L462.817 394.921L460.519 392.409ZM469.933 392.833C471.007 391.718 471.067 390.637 470.113 389.593C469.835 389.289 469.497 389.03 469.103 388.819C468.709 388.605 468.269 388.444 467.789 388.331C467.304 388.222 466.816 388.166 466.324 388.17C465.742 388.166 465.157 388.245 464.571 388.406C464.391 388.455 463.734 388.699 462.908 389.015L461.635 387.798L458.728 388.549V389.03L459.814 390.216C459.427 390.366 459.089 390.502 458.822 390.607L457.76 389.443L454.737 390.243V390.723L455.777 391.861L454.121 392.067V392.548L455.999 394.654L457.688 393.952L463.459 400.26L461.774 400.482V400.963L463.688 403.054L465.374 402.356L466.302 403.369L469.324 402.089V401.608L468.412 401.09L469.385 400.688L470.293 401.676L473.316 400.396V399.915L472.422 399.419C472.985 399.171 473.477 398.931 473.898 398.698C474.446 398.394 474.893 398.083 475.235 397.756C475.768 397.227 476.038 396.637 476.046 395.987C476.053 395.342 475.79 394.722 475.253 394.14C474.101 392.878 472.325 392.443 469.933 392.833Z" fill="#D87501"/>
<path d="M470.293 397.617L466.993 398.987L464.207 395.938L467.402 394.613C468.472 394.166 469.385 393.952 470.139 393.967C470.894 393.978 471.514 394.248 471.998 394.778C472.94 395.807 472.37 396.753 470.293 397.617ZM460.519 391.909C460.519 391.909 464.871 389.964 465.577 389.912C466.279 389.855 466.873 390.096 467.353 390.621C467.578 390.869 467.699 391.128 467.706 391.399C467.744 391.77 467.597 392.093 467.271 392.367C466.944 392.638 466.399 392.934 465.634 393.253L462.817 394.421L460.519 391.909ZM469.933 392.334C471.007 391.218 471.067 390.137 470.113 389.093C469.835 388.789 469.497 388.53 469.103 388.316C468.709 388.106 468.269 387.94 467.789 387.831C467.304 387.719 466.816 387.666 466.324 387.666C465.742 387.666 465.157 387.745 464.571 387.907C464.391 387.952 463.734 388.199 462.908 388.515L461.635 387.298L458.728 388.53L459.814 389.716C459.427 389.867 459.089 390.002 458.822 390.103L457.76 388.939L454.737 390.223L455.777 391.357L454.121 392.048L455.999 394.155L457.688 393.452L463.459 399.761L461.774 400.463L463.688 402.554L465.374 401.852L466.302 402.87L469.324 401.589L468.412 400.59L469.385 400.185L470.293 401.176L473.316 399.896L472.422 398.919C472.985 398.672 473.477 398.431 473.898 398.199C474.446 397.894 474.893 397.579 475.235 397.256C475.768 396.727 476.038 396.137 476.046 395.488C476.053 394.838 475.79 394.222 475.253 393.64C474.101 392.375 472.325 391.939 469.933 392.334Z" fill="#FFFB61"/>
<path d="M493.72 439.999L490.416 441.373L487.63 438.324L490.829 436.995C491.895 436.552 492.807 436.334 493.566 436.349C494.321 436.364 494.936 436.635 495.421 437.16C496.363 438.189 495.796 439.139 493.72 439.999ZM483.946 434.292C483.946 434.292 488.294 432.347 489 432.294C489.702 432.242 490.295 432.478 490.776 433.004C491.005 433.252 491.122 433.511 491.133 433.781C491.167 434.153 491.02 434.476 490.693 434.75C490.371 435.024 489.822 435.317 489.056 435.636L486.244 436.807L483.946 434.292ZM493.356 434.716C494.429 433.601 494.49 432.519 493.536 431.476C493.258 431.171 492.92 430.912 492.526 430.702C492.132 430.488 491.692 430.327 491.212 430.214C490.727 430.105 490.239 430.049 489.747 430.053C489.165 430.053 488.583 430.131 487.994 430.289C487.814 430.338 487.156 430.582 486.33 430.897L485.061 429.681L482.151 430.432V430.912L483.236 432.099C482.853 432.249 482.512 432.384 482.249 432.489L481.183 431.325L478.16 432.125V432.606L479.2 433.743L477.544 433.95V434.431L479.425 436.537L481.115 435.835L486.882 442.147L485.2 442.365V442.845L487.111 444.937L488.797 444.238L489.725 445.252L492.747 443.972V443.491L491.835 442.973L492.811 442.571L493.716 443.562L496.739 442.278V441.798L495.845 441.302C496.408 441.054 496.9 440.814 497.321 440.581C497.873 440.277 498.316 439.965 498.657 439.639C499.191 439.109 499.461 438.52 499.468 437.87C499.476 437.224 499.213 436.608 498.68 436.023C497.523 434.761 495.747 434.325 493.356 434.716Z" fill="#D87501"/>
<path d="M493.72 439.535L490.416 440.905L487.63 437.856L490.829 436.531C491.895 436.084 492.807 435.87 493.566 435.885C494.321 435.896 494.936 436.167 495.421 436.696C496.363 437.725 495.796 438.671 493.72 439.535ZM483.946 433.828C483.946 433.828 488.294 431.883 489 431.83C489.702 431.777 490.295 432.014 490.776 432.54C491.005 432.787 491.122 433.047 491.133 433.317C491.167 433.689 491.02 434.012 490.693 434.286C490.371 434.556 489.822 434.853 489.056 435.172L486.244 436.339L483.946 433.828ZM493.356 434.252C494.429 433.137 494.49 432.055 493.536 431.011C493.258 430.707 492.92 430.448 492.526 430.234C492.132 430.024 491.692 429.862 491.212 429.75C490.727 429.641 490.239 429.585 489.747 429.588C489.165 429.585 488.583 429.663 487.994 429.825C487.814 429.874 487.156 430.118 486.33 430.433L485.061 429.217L482.151 430.448L483.236 431.635C482.853 431.785 482.512 431.92 482.249 432.021L481.183 430.861L478.16 432.142L479.2 433.279L477.544 433.966L479.425 436.073L481.115 435.371L486.882 441.679L485.2 442.381L487.111 444.472L488.797 443.774L489.725 444.788L492.747 443.507L491.835 442.509L492.811 442.103L493.716 443.094L496.739 441.814L495.845 440.838C496.408 440.59 496.9 440.35 497.321 440.117C497.873 439.813 498.316 439.497 498.657 439.174C499.191 438.645 499.461 438.055 499.468 437.406C499.476 436.76 499.213 436.141 498.68 435.559C497.523 434.293 495.747 433.858 493.356 434.252Z" fill="#FFFB61"/>
<path d="M253.607 220.177L245.41 215.736L245.366 202.122L253.306 206.422C255.961 207.861 257.959 209.473 259.298 211.257C260.638 213.041 261.312 215.11 261.319 217.464C261.334 222.065 258.762 222.97 253.607 220.177ZM245.308 184.123C245.308 184.123 256.338 189.653 257.695 191.161C259.05 192.668 259.732 194.599 259.739 196.952C259.743 198.055 259.532 198.936 259.107 199.594C258.562 200.549 257.773 200.968 256.738 200.851C255.703 200.736 254.235 200.162 252.333 199.132L245.345 195.346L245.308 184.123ZM261.593 206.943C265.354 206.821 267.228 204.428 267.213 199.762C267.209 198.406 267.025 197.02 266.661 195.605C266.297 194.191 265.771 192.794 265.083 191.416C264.394 190.038 263.603 188.778 262.71 187.638C261.663 186.288 260.479 185.117 259.16 184.127C258.758 183.825 257.172 182.874 255.166 181.699L255.139 173.555L247.592 169.466L244.963 170.593L247.617 177.338C246.677 176.8 245.845 176.325 245.198 175.957L245.173 168.156L237.625 164.067L234.997 165.194L237.65 171.829L231.269 168.373L228.641 169.499L231.299 177.717L237.68 181.173L237.771 209.352L231.39 205.895L228.762 207.021L231.42 215.238L237.801 218.695L237.823 225.39L242.743 230.605L245.371 229.479L245.349 222.784L247.768 224.095L247.789 230.789L252.709 236.003L255.337 234.877L255.316 228.162C256.738 228.888 258.019 229.468 259.153 229.897C260.643 230.461 260.173 231.822 261.319 231.85C263.148 231.846 266.387 230.026 267.46 228.522C268.532 227.019 269.064 224.962 269.056 222.354C269.038 216.713 266.55 211.576 261.593 206.943Z" fill="#D87501"/>
<path d="M250.978 221.284L242.782 216.843L242.738 203.229L250.677 207.529C253.333 208.968 255.33 210.58 256.67 212.364C258.009 214.148 258.683 216.217 258.691 218.57C258.706 223.172 256.134 224.076 250.978 221.284ZM242.68 185.23C242.68 185.23 253.71 190.76 255.066 192.268C256.421 193.775 257.104 195.705 257.111 198.059C257.115 199.161 256.904 200.043 256.479 200.701C255.934 201.656 255.144 202.075 254.11 201.958C253.075 201.843 251.607 201.269 249.705 200.239L242.716 196.453L242.68 185.23ZM258.964 208.05C262.726 207.928 264.599 205.535 264.584 200.869C264.58 199.512 264.397 198.127 264.033 196.712C263.669 195.298 263.142 193.901 262.455 192.523C261.766 191.145 260.975 189.885 260.082 188.745C259.035 187.395 257.851 186.224 256.531 185.234C256.129 184.932 254.544 183.981 252.537 182.805L252.511 174.662L244.963 170.573L244.989 178.445C244.048 177.907 243.216 177.432 242.57 177.064L242.545 169.263L234.997 165.174L235.022 172.936L228.641 169.48L228.671 178.823L235.052 182.28L235.143 210.459L228.762 207.002L228.792 216.345L235.173 219.802L235.195 226.496L242.743 230.585L242.721 223.891L245.139 225.201L245.161 231.895L252.709 235.984L252.687 229.269C254.11 229.995 255.391 230.575 256.525 231.004C258.015 231.568 259.332 231.863 260.478 231.891C262.307 231.888 263.759 231.133 264.831 229.629C265.903 228.126 266.436 226.068 266.428 223.461C266.41 217.82 263.921 212.682 258.964 208.05Z" fill="#FFBE04"/>
<path d="M63.3595 138.606L79.2345 147.971L96.4466 138.267L80.2107 128.897L63.3595 138.606Z" fill="#706971"/>
<path d="M163.815 289.866L51.6906 223.724L51.0054 222.572L81.2805 205.128L193.445 274.794L163.815 289.866Z" fill="#352F35"/>
<path d="M63.181 224.554L79.056 233.919L79.2366 147.974L63.3616 138.609L63.181 224.554Z" fill="#564C57"/>
<path d="M79.0521 233.901L96.2638 224.197L96.4448 138.252L79.2327 147.956L79.0521 233.901Z" fill="#2E252F"/>
<path d="M88.7105 173.205L104.585 182.569L121.798 172.866L105.562 163.496L88.7105 173.205Z" fill="#706971"/>
<path d="M88.7105 238.133L104.585 247.497V182.573L88.7105 173.208V238.133Z" fill="#564C57"/>
<path d="M104.582 247.479L121.794 237.776V172.851L104.582 182.554V247.479Z" fill="#2E252F"/>
<path d="M113.954 206.375L129.829 215.74L147.041 206.037L130.806 196.666L113.954 206.375Z" fill="#706971"/>
<path d="M113.954 252.229L129.829 261.594V215.743L113.954 206.378V252.229Z" fill="#564C57"/>
<path d="M129.843 261.575L147.055 251.873V206.021L129.843 215.725V261.575Z" fill="#2E252F"/>
<path d="M139.662 239.653L155.537 249.017L172.749 239.315L156.514 229.944L139.662 239.653Z" fill="#706971"/>
<path d="M139.43 266.435L155.305 275.8L155.537 249.02L139.662 239.656L139.43 266.435Z" fill="#564C57"/>
<path d="M155.301 275.78L172.513 266.078L172.745 239.299L155.533 249.001L155.301 275.78Z" fill="#2E252F"/>
<path d="M124.095 122.317L131.303 119.067L120.785 101.646L118.41 100.547L108.527 127.454L110.814 129.695L115.841 126.043C122.525 154.086 152.528 192.42 162.736 199.892L162.705 196.708C154.309 190.563 129.199 148.449 124.095 122.317Z" fill="#030353"/>
<path d="M126.271 121.649L131.301 119.04L120.783 101.618L110.812 129.668L118.213 125.829C124.897 153.872 152.495 189.209 162.703 196.681L170.331 191.829C161.127 185.766 131.375 147.78 126.271 121.649Z" fill="#6666FF"/>
<path d="M162.724 199.881L170.321 195.06V191.846L162.692 196.697L162.724 199.881Z" fill="#010134"/>
<path fill-rule="evenodd" clip-rule="evenodd" d="M33.5342 193.203L0 249.584L33.5342 269.912L67.0685 249.584L33.5342 193.203Z" fill="url(#paint6_linear)"/>
<path d="M61.432 325.086C61.432 333.816 48.9427 340.893 33.5367 340.893C18.1304 340.893 5.64148 333.816 5.64148 325.086C5.64148 321.815 11.0221 316.314 14.0297 313.791C19.0428 309.586 23.9079 309.282 33.5367 309.282C42.9193 309.282 46.911 309.766 51.9676 313.791C55.214 316.374 61.432 321.673 61.432 325.086Z" fill="#706971"/>
<path d="M53.0435 317.412C53.0435 323.521 44.3064 328.47 33.529 328.47C22.7515 328.47 14.0144 323.521 14.0144 317.412C14.0144 311.306 22.7515 306.354 33.529 306.354C44.3064 306.354 53.0435 311.306 53.0435 317.412Z" fill="#564C57"/>
<path d="M43.4953 316.154C43.4953 318.549 39.038 320.494 33.5394 320.494C28.0409 320.494 23.5835 318.549 23.5835 316.154C23.5835 313.758 28.0409 311.817 33.5394 311.817C39.038 311.817 43.4953 313.758 43.4953 316.154Z" fill="#2E252F"/>
<path d="M33.5342 275.576L0 254.616L33.5342 303.241L67.0685 254.616L33.5342 275.576Z" fill="#2E252F"/>
<path d="M33.5342 193.203L0 249.584L33.5342 269.912L67.0685 249.584L33.5342 193.203Z" fill="#2E252F"/>
<path d="M33.5342 269.912L0 249.584L33.5342 193.203V269.912Z" fill="#564C57"/>
<path d="M33.5342 303.241L0 254.616L33.5342 275.576V303.241Z" fill="#564C57"/>
<path d="M33.5342 269.902L0 249.573L33.5342 234.693V269.902Z" fill="#706971"/>
<path d="M33.5275 269.902V234.693L67.0618 249.573L33.5275 269.902Z" fill="#2E252F"/>
<path d="M436.945 200.306L425.343 193.687V133.896L436.945 140.594V200.306Z" fill="#564C57"/>
<path d="M508.804 140.494V185.535L472.795 206.326V220.756L520.234 193.687V133.896L508.804 140.494Z" fill="#2E252F"/>
<path d="M472.792 220.756L449.069 207.222V192.56L472.792 206.094V220.756Z" fill="#564C57"/>
<path d="M472.795 163.479V193.215L496.514 179.68V149.785L472.795 163.479Z" fill="#2E252F"/>
<path d="M449.069 149.785V179.68L472.792 193.215V163.479L449.069 149.785Z" fill="#564C57"/>
<path d="M472.785 106.188L425.343 133.885L436.772 140.484L472.785 119.693L496.504 133.387V120.037L472.785 106.188Z" fill="#706971"/>
<path d="M508.804 127.219V140.49L520.234 133.892L508.804 127.219Z" fill="#706971"/>
<path d="M496.511 149.802L472.792 136.36L449.069 149.802L472.792 163.497L496.511 149.802Z" fill="#706971"/>
<path d="M185.391 55.8315C183.886 55.8318 182.559 56.2043 181.433 56.8839L181.344 56.7642C178.323 52.7105 176.696 47.6009 177.087 43.3921L177.161 42.595C178.287 42.9051 179.406 43.0523 180.49 42.9742C187.305 42.4823 190.129 34.0333 186.622 24.2625C183.434 15.379 175.938 8.49339 169.577 8.60641C162.582 8.73032 159.523 16.9639 162.741 26.6705C164.274 31.2941 166.952 35.3895 170.061 38.3265L169.866 39.8686C169.39 43.6118 167.272 45.9965 164.226 46.2161L163.345 46.2796C159.445 38.9408 152.797 33.8598 147.161 34.5266C140.974 35.2592 138.242 42.8935 140.965 51.8532C143.947 61.6665 152.114 69.3289 158.93 68.837C164.482 68.4364 167.37 62.7475 166.359 55.3715L169.654 55.1338C171.18 55.0238 172.974 56.0781 174.364 57.9019L177.681 62.2559C176.738 65.5973 176.962 69.9402 178.64 74.5958C181.809 83.391 189.205 90.2364 195.532 90.2229C202.846 90.2075 205.937 81.4115 202.192 71.2514C199.115 62.9007 191.409 55.8296 185.391 55.8315Z" fill="#6666FF"/>
<path d="M420.733 394.899C420.425 394.899 420.109 394.82 419.813 394.647L397.457 381.603V313.281L420.316 326.34C420.331 330.147 420.357 332.408 420.398 332.426L422.565 333.658V393.063C422.565 394.133 421.686 394.899 420.733 394.899Z" fill="#564C57"/>
<path d="M397.457 381.612L392.565 378.758V310.496L397.457 313.289V381.612Z" fill="#352F35"/>
<path d="M392.558 378.755L386.441 375.188V306.996L392.558 310.492V378.755Z" fill="#564C57"/>
<path d="M386.448 375.199L333.381 344.237C332.818 343.907 332.472 343.306 332.472 342.653V316.632L377.237 342.75V301.748L386.448 307.008V375.199Z" fill="#706971"/>
<path d="M377.237 342.723L332.472 316.605V306.249L364.092 324.696C364.595 324.993 365.136 325.124 365.657 325.124C367.291 325.124 368.789 323.821 368.789 321.996V296.892L377.237 301.72V342.723Z" fill="#93DAE2"/>
<path d="M365.657 325.128C365.135 325.128 364.595 324.996 364.092 324.7L332.472 306.252V279.304C332.472 278.234 333.347 277.468 334.305 277.468C334.609 277.468 334.917 277.547 335.21 277.712L348.475 285.293C348.791 285.837 349.181 286.337 349.606 286.735C349.767 286.885 349.936 287.024 350.101 287.144C350.683 287.561 351.28 287.779 351.825 287.779C352.084 287.779 352.335 287.726 352.568 287.628L368.789 296.895V322C368.789 323.825 367.291 325.128 365.657 325.128Z" fill="#D2EBF1"/>
<path d="M422.557 333.667L420.391 332.435C420.349 332.417 420.323 330.156 420.308 326.349L421.633 327.107C421.836 327.22 422.009 327.37 422.148 327.543V331.504L422.557 331.737V333.667Z" fill="#564C57"/>
<path d="M422.556 331.721L422.147 331.489V327.527C422.41 327.85 422.556 328.256 422.556 328.684V331.721Z" fill="#564C57"/>
<path d="M351.818 287.773C351.273 287.773 350.676 287.555 350.094 287.139C349.929 287.018 349.76 286.879 349.599 286.729C349.174 286.331 348.784 285.832 348.468 285.287L352.561 287.623C352.328 287.721 352.077 287.773 351.818 287.773Z" fill="#8FDFE3"/>
<path d="M326.456 333.241V269.912C326.456 268.504 327.973 267.625 329.193 268.32L415.625 317.7C416.196 318.026 416.549 318.635 416.549 319.292V383.664C416.549 385.08 415.017 385.958 413.797 385.249L327.365 334.822C326.801 334.491 326.456 333.89 326.456 333.241Z" fill="white"/>
<path d="M416.549 319.292C416.549 318.635 416.196 318.026 415.625 317.7L329.193 268.32C327.973 267.625 326.456 268.504 326.456 269.912V276.922L416.549 328.51V319.292Z" fill="#2E252F"/>
<path d="M333.243 275.315C333.799 276.272 333.821 277.293 333.299 277.594C332.774 277.894 331.903 277.365 331.351 276.407C330.799 275.45 330.772 274.428 331.294 274.124C331.82 273.824 332.691 274.353 333.243 275.315Z" fill="#FFFBF7"/>
<path d="M337.601 277.526C338.152 278.483 338.179 279.505 337.657 279.805C337.131 280.109 336.26 279.576 335.708 278.619C335.152 277.661 335.13 276.64 335.652 276.339C336.177 276.035 337.049 276.569 337.601 277.526Z" fill="#FFFBF7"/>
<path d="M342.116 280.063C342.672 281.021 342.694 282.042 342.172 282.342C341.647 282.646 340.775 282.113 340.223 281.156C339.672 280.198 339.645 279.177 340.167 278.873C340.693 278.572 341.564 279.106 342.116 280.063Z" fill="#FFFBF7"/>
<path d="M412.254 319.253L404.793 314.987C404.556 314.852 404.474 314.552 404.609 314.315C404.744 314.079 405.045 313.996 405.281 314.131L412.742 318.393C412.982 318.528 413.061 318.832 412.926 319.069C412.791 319.305 412.49 319.388 412.254 319.253Z" fill="#FFFBF7"/>
<path d="M412.254 321.466L404.793 317.205C404.556 317.07 404.474 316.765 404.609 316.529C404.744 316.292 405.045 316.21 405.281 316.345L412.742 320.607C412.982 320.746 413.061 321.046 412.926 321.282C412.791 321.519 412.49 321.602 412.254 321.466Z" fill="#FFFBF7"/>
<path d="M412.254 323.68L404.793 319.418C404.556 319.283 404.474 318.979 404.609 318.743C404.744 318.506 405.045 318.423 405.281 318.559L412.742 322.824C412.982 322.959 413.061 323.26 412.926 323.496C412.791 323.733 412.49 323.815 412.254 323.68Z" fill="#FFFBF7"/>
<path d="M337.453 314.131V309.775C337.453 305.51 342.064 302.836 345.766 304.95L394.463 332.77C400.17 336.033 403.696 342.101 403.696 348.675V351.672C403.696 355.96 399.04 358.633 395.338 356.474L344.858 327.021C340.273 324.348 337.453 319.44 337.453 314.131Z" fill="#FFBE04"/>
<path d="M353.098 318.967C354.314 321.074 354.367 323.319 353.218 323.984C352.065 324.644 350.15 323.477 348.933 321.37C347.721 319.268 347.664 317.022 348.813 316.358C349.966 315.697 351.881 316.864 353.098 318.967Z" fill="white"/>
<path d="M362.666 323.825C363.883 325.928 363.935 328.173 362.786 328.838C361.637 329.502 359.719 328.331 358.502 326.228C357.289 324.121 357.233 321.876 358.386 321.215C359.535 320.551 361.45 321.718 362.666 323.825Z" fill="white"/>
<path d="M372.612 329.395C373.825 331.501 373.877 333.746 372.728 334.407C371.579 335.072 369.664 333.904 368.448 331.798C367.231 329.695 367.179 327.45 368.328 326.785C369.477 326.12 371.395 327.292 372.612 329.395Z" fill="white"/>
<path d="M382.268 334.786C383.485 336.893 383.538 339.138 382.389 339.799C381.24 340.463 379.321 339.296 378.104 337.189C376.892 335.087 376.835 332.841 377.988 332.177C379.137 331.512 381.052 332.683 382.268 334.786Z" fill="white"/>
<path d="M392.193 340.357C393.409 342.459 393.462 344.705 392.313 345.369C391.164 346.034 389.245 344.862 388.032 342.76C386.816 340.653 386.763 338.408 387.912 337.747C389.061 337.082 390.98 338.25 392.193 340.357Z" fill="white"/>
<defs>
<linearGradient id="paint0_linear" x1="472.255" y1="516.59" x2="507.388" y2="536.751" gradientUnits="userSpaceOnUse">
<stop stop-color="#4FDFD6"/>
<stop offset="1" stop-color="#4FAAE2"/>
</linearGradient>
<linearGradient id="paint1_linear" x1="461.869" y1="539.788" x2="479.119" y2="539.788" gradientUnits="userSpaceOnUse">
<stop stop-color="#EDFFFF"/>
<stop offset="1" stop-color="#C6DBF4"/>
</linearGradient>
<linearGradient id="paint2_linear" x1="443.177" y1="447.547" x2="488.334" y2="447.547" gradientUnits="userSpaceOnUse">
<stop stop-color="#FFE857"/>
<stop offset="1" stop-color="#FFB805"/>
</linearGradient>
<linearGradient id="paint3_linear" x1="444.306" y1="401.97" x2="493.357" y2="401.97" gradientUnits="userSpaceOnUse">
<stop stop-color="#FFB805"/>
<stop offset="1" stop-color="#F2A53A"/>
</linearGradient>
<linearGradient id="paint4_linear" x1="466.903" y1="443.785" x2="515.954" y2="443.785" gradientUnits="userSpaceOnUse">
<stop stop-color="#FFB805"/>
<stop offset="1" stop-color="#F2A53A"/>
</linearGradient>
<linearGradient id="paint5_linear" x1="405.458" y1="452.422" x2="454.509" y2="452.422" gradientUnits="userSpaceOnUse">
<stop stop-color="#FFB805"/>
<stop offset="1" stop-color="#F2A53A"/>
</linearGradient>
<linearGradient id="paint6_linear" x1="-74.1951" y1="231.558" x2="-7.12622" y2="231.558" gradientUnits="userSpaceOnUse">
<stop stop-color="#4FDFD6"/>
<stop offset="1" stop-color="#4FAAE2"/>
</linearGradient>
</defs>
</svg>
