<svg width="50" height="50" viewBox="0 0 50 50" fill="none" xmlns="http://www.w3.org/2000/svg">
<path d="M25.0001 39.7353C22.0857 39.7353 19.2369 38.8711 16.8137 37.252C14.3905 35.6329 12.5019 33.3315 11.3866 30.639C10.2713 27.9466 9.97951 24.9838 10.5481 22.1255C11.1166 19.2671 12.52 16.6416 14.5808 14.5808C16.6415 12.5201 19.2671 11.1167 22.1254 10.5482C24.9837 9.97959 27.9465 10.2714 30.639 11.3867C33.3315 12.5019 35.6328 14.3906 37.2519 16.8138C38.871 19.2369 39.7352 22.0858 39.7352 25.0002C39.7307 28.9068 38.1769 32.6521 35.4144 35.4145C32.652 38.1769 28.9067 39.7308 25.0001 39.7353ZM25.0001 11.6164C22.353 11.6164 19.7654 12.4013 17.5644 13.8719C15.3635 15.3426 13.6481 17.4328 12.6351 19.8784C11.6221 22.324 11.357 25.015 11.8735 27.6112C12.3899 30.2074 13.6646 32.5922 15.5363 34.4639C17.4081 36.3357 19.7928 37.6104 22.389 38.1268C24.9852 38.6432 27.6763 38.3781 30.1218 37.3652C32.5674 36.3522 34.6577 34.6367 36.1283 32.4358C37.5989 30.2348 38.3839 27.6472 38.3839 25.0002C38.3797 21.4518 36.9684 18.05 34.4593 15.5409C31.9502 13.0319 28.5484 11.6205 25.0001 11.6164Z" fill="#FFFBF7"/>
<path d="M25 36.2433C22.7763 36.2433 20.6025 35.5839 18.7536 34.3485C16.9046 33.1131 15.4636 31.3571 14.6126 29.3027C13.7616 27.2483 13.539 24.9876 13.9728 22.8066C14.4066 20.6257 15.4774 18.6223 17.0498 17.0499C18.6222 15.4775 20.6256 14.4067 22.8065 13.9729C24.9875 13.5391 27.2482 13.7617 29.3026 14.6127C31.357 15.4637 33.113 16.9047 34.3484 18.7537C35.5838 20.6026 36.2432 22.7764 36.2432 25.0001C36.2398 27.9809 35.0542 30.8387 32.9464 32.9465C30.8386 35.0543 27.9809 36.2399 25 36.2433ZM25 15.1082C23.0436 15.1082 21.1311 15.6883 19.5044 16.7753C17.8776 17.8622 16.6098 19.4071 15.8611 21.2146C15.1124 23.0221 14.9165 25.0111 15.2982 26.9299C15.6799 28.8487 16.622 30.6113 18.0054 31.9947C19.3888 33.3781 21.1513 34.3202 23.0702 34.7019C24.989 35.0836 26.978 34.8877 28.7855 34.139C30.593 33.3903 32.1379 32.1224 33.2248 30.4957C34.3117 28.869 34.8919 26.9565 34.8919 25.0001C34.8889 22.3775 33.8457 19.8633 31.9913 18.0088C30.1368 16.1544 27.6226 15.1112 25 15.1082Z" fill="#FFFBF7"/>
<path d="M26.1257 25.2163H22.6893C22.5101 25.2163 22.3382 25.1451 22.2115 25.0184C22.0848 24.8917 22.0136 24.7198 22.0136 24.5406V19.017C22.0136 18.8378 22.0848 18.6659 22.2115 18.5392C22.3382 18.4125 22.5101 18.3413 22.6893 18.3413H26.1257C26.5812 18.3349 27.0334 18.4191 27.4561 18.589C27.8787 18.7589 28.2634 19.011 28.5877 19.3309C28.9121 19.6507 29.1697 20.0318 29.3454 20.4521C29.5212 20.8723 29.6118 21.3233 29.6118 21.7788C29.6118 22.2343 29.5212 22.6853 29.3454 23.1055C29.1697 23.5257 28.9121 23.9068 28.5877 24.2267C28.2634 24.5465 27.8787 24.7987 27.4561 24.9686C27.0334 25.1385 26.5812 25.2227 26.1257 25.2163ZM23.3649 23.8649H26.1257C26.4029 23.8699 26.6782 23.8196 26.9357 23.717C27.1931 23.6144 27.4276 23.4616 27.6253 23.2674C27.8231 23.0732 27.9801 22.8415 28.0873 22.5859C28.1945 22.3303 28.2498 22.0559 28.2498 21.7788C28.2498 21.5016 28.1945 21.2272 28.0873 20.9717C27.9801 20.7161 27.8231 20.4844 27.6253 20.2902C27.4276 20.096 27.1931 19.9431 26.9357 19.8405C26.6782 19.7379 26.4029 19.6876 26.1257 19.6926H23.3649V23.8649Z" fill="#FFFBF7"/>
<path d="M27.0034 30.7432H22.6893C22.5101 30.7432 22.3382 30.6721 22.2115 30.5453C22.0848 30.4186 22.0136 30.2468 22.0136 30.0676V24.5405C22.0136 24.3613 22.0848 24.1895 22.2115 24.0628C22.3382 23.9361 22.5101 23.8649 22.6893 23.8649H27.0034C27.9152 23.8649 28.7896 24.2271 29.4344 24.8718C30.0791 25.5165 30.4413 26.3909 30.4413 27.3027C30.4413 28.2145 30.0791 29.0889 29.4344 29.7336C28.7896 30.3783 27.9152 30.7405 27.0034 30.7405V30.7432ZM23.3649 29.3919H27.0034C27.5568 29.3919 28.0875 29.1721 28.4788 28.7808C28.8701 28.3895 29.0899 27.8588 29.0899 27.3054C29.0899 26.752 28.8701 26.2213 28.4788 25.83C28.0875 25.4387 27.5568 25.2189 27.0034 25.2189H23.3649V29.3919Z" fill="#FFFBF7"/>
<path d="M22.6892 19.6927H21.7027C21.5235 19.6927 21.3517 19.6215 21.225 19.4948C21.0983 19.368 21.0271 19.1962 21.0271 19.017C21.0271 18.8378 21.0983 18.6659 21.225 18.5392C21.3517 18.4125 21.5235 18.3413 21.7027 18.3413H22.6892C22.8684 18.3413 23.0403 18.4125 23.167 18.5392C23.2937 18.6659 23.3649 18.8378 23.3649 19.017C23.3649 19.1962 23.2937 19.368 23.167 19.4948C23.0403 19.6215 22.8684 19.6927 22.6892 19.6927Z" fill="#FFFBF7"/>
<path d="M23.2433 19.6926C23.0641 19.6926 22.8922 19.6214 22.7655 19.4947C22.6388 19.368 22.5676 19.1961 22.5676 19.0169V17.7737C22.5676 17.5945 22.6388 17.4226 22.7655 17.2959C22.8922 17.1692 23.0641 17.098 23.2433 17.098C23.4225 17.098 23.5943 17.1692 23.7211 17.2959C23.8478 17.4226 23.919 17.5945 23.919 17.7737V19.0169C23.919 19.1961 23.8478 19.368 23.7211 19.4947C23.5943 19.6214 23.4225 19.6926 23.2433 19.6926Z" fill="#FFFBF7"/>
<path d="M25.3953 19.6926C25.2161 19.6926 25.0443 19.6214 24.9175 19.4947C24.7908 19.368 24.7196 19.1961 24.7196 19.0169V17.7737C24.7196 17.5945 24.7908 17.4226 24.9175 17.2959C25.0443 17.1692 25.2161 17.098 25.3953 17.098C25.5745 17.098 25.7464 17.1692 25.8731 17.2959C25.9998 17.4226 26.071 17.5945 26.071 17.7737V19.0169C26.071 19.1961 25.9998 19.368 25.8731 19.4947C25.7464 19.6214 25.5745 19.6926 25.3953 19.6926Z" fill="#FFFBF7"/>
<path d="M23.2433 31.9832C23.0641 31.9832 22.8922 31.912 22.7655 31.7853C22.6388 31.6586 22.5676 31.4867 22.5676 31.3075V30.0676C22.5676 29.8884 22.6388 29.7166 22.7655 29.5899C22.8922 29.4632 23.0641 29.392 23.2433 29.392C23.4225 29.392 23.5943 29.4632 23.7211 29.5899C23.8478 29.7166 23.919 29.8884 23.919 30.0676V31.3102C23.9182 31.4889 23.8467 31.6601 23.7201 31.7862C23.5935 31.9124 23.422 31.9832 23.2433 31.9832Z" fill="#FFFBF7"/>
<path d="M25.3953 31.9832C25.2161 31.9832 25.0443 31.912 24.9175 31.7853C24.7908 31.6586 24.7196 31.4867 24.7196 31.3075V30.0676C24.7196 29.8884 24.7908 29.7166 24.9175 29.5899C25.0443 29.4632 25.2161 29.392 25.3953 29.392C25.5745 29.392 25.7464 29.4632 25.8731 29.5899C25.9998 29.7166 26.071 29.8884 26.071 30.0676V31.3102C26.0703 31.4889 25.9988 31.6601 25.8721 31.7862C25.7455 31.9124 25.574 31.9832 25.3953 31.9832Z" fill="#FFFBF7"/>
<path d="M22.6892 30.7433H21.7027C21.5235 30.7433 21.3517 30.6721 21.225 30.5454C21.0983 30.4187 21.0271 30.2468 21.0271 30.0676C21.0271 29.8884 21.0983 29.7166 21.225 29.5899C21.3517 29.4632 21.5235 29.392 21.7027 29.392H22.6892C22.8684 29.392 23.0403 29.4632 23.167 29.5899C23.2937 29.7166 23.3649 29.8884 23.3649 30.0676C23.3649 30.2468 23.2937 30.4187 23.167 30.5454C23.0403 30.6721 22.8684 30.7433 22.6892 30.7433Z" fill="#FFFBF7"/>
<path d="M25 11.6163C24.8208 11.6163 24.649 11.5451 24.5223 11.4184C24.3955 11.2917 24.3244 11.1199 24.3244 10.9407V6.25417C24.3244 6.07497 24.3955 5.90311 24.5223 5.77639C24.649 5.64968 24.8208 5.57849 25 5.57849C25.1792 5.57849 25.3511 5.64968 25.4778 5.77639C25.6045 5.90311 25.6757 6.07497 25.6757 6.25417V10.9407C25.6757 11.1199 25.6045 11.2917 25.4778 11.4184C25.3511 11.5451 25.1792 11.6163 25 11.6163Z" fill="#FFFBF7"/>
<path d="M25 6.92982C24.4484 6.92982 23.9091 6.76624 23.4504 6.45976C22.9918 6.15328 22.6343 5.71766 22.4232 5.20801C22.2121 4.69835 22.1568 4.13754 22.2644 3.59649C22.3721 3.05544 22.6377 2.55845 23.0278 2.16838C23.4179 1.7783 23.9148 1.51266 24.4559 1.40504C24.9969 1.29741 25.5577 1.35265 26.0674 1.56376C26.5771 1.77486 27.0127 2.13236 27.3192 2.59104C27.6256 3.04972 27.7892 3.58898 27.7892 4.14063C27.7883 4.8801 27.4942 5.58902 26.9713 6.1119C26.4484 6.63478 25.7395 6.92893 25 6.92982ZM25 2.70279C24.7157 2.70279 24.4377 2.78712 24.2012 2.94511C23.9648 3.1031 23.7805 3.32766 23.6716 3.59039C23.5628 3.85312 23.5343 4.14223 23.5898 4.42114C23.6453 4.70005 23.7822 4.95625 23.9833 5.15734C24.1844 5.35842 24.4406 5.49536 24.7195 5.55084C24.9984 5.60632 25.2875 5.57785 25.5503 5.46902C25.813 5.36019 26.0376 5.1759 26.1955 4.93945C26.3535 4.703 26.4379 4.42501 26.4379 4.14063C26.4375 3.7594 26.2859 3.39389 26.0163 3.12432C25.7468 2.85475 25.3813 2.70315 25 2.70279Z" fill="#FFFBF7"/>
<path d="M25 44.4218C24.8208 44.4218 24.649 44.3506 24.5223 44.2239C24.3955 44.0971 24.3244 43.9253 24.3244 43.7461V39.0596C24.3244 38.8804 24.3955 38.7085 24.5223 38.5818C24.649 38.4551 24.8208 38.3839 25 38.3839C25.1792 38.3839 25.3511 38.4551 25.4778 38.5818C25.6045 38.7085 25.6757 38.8804 25.6757 39.0596V43.7461C25.6757 43.9253 25.6045 44.0971 25.4778 44.2239C25.3511 44.3506 25.1792 44.4218 25 44.4218Z" fill="#FFFBF7"/>
<path d="M25 48.6487C24.4484 48.6487 23.9091 48.4851 23.4504 48.1786C22.9918 47.8721 22.6343 47.4365 22.4232 46.9269C22.2121 46.4172 22.1568 45.8564 22.2644 45.3154C22.3721 44.7743 22.6377 44.2773 23.0278 43.8872C23.4179 43.4972 23.9148 43.2315 24.4559 43.1239C24.9969 43.0163 25.5577 43.0715 26.0674 43.2826C26.5771 43.4937 27.0127 43.8512 27.3192 44.3099C27.6256 44.7686 27.7892 45.3078 27.7892 45.8595C27.7883 46.599 27.4942 47.3079 26.9713 47.8308C26.4484 48.3536 25.7395 48.6478 25 48.6487ZM25 44.4217C24.7157 44.4217 24.4377 44.506 24.2012 44.664C23.9648 44.822 23.7805 45.0465 23.6716 45.3093C23.5628 45.572 23.5343 45.8611 23.5898 46.14C23.6453 46.4189 23.7822 46.6751 23.9833 46.8762C24.1844 47.0773 24.4406 47.2142 24.7195 47.2697C24.9984 47.3252 25.2875 47.2967 25.5503 47.1879C25.813 47.0791 26.0376 46.8948 26.1955 46.6583C26.3535 46.4219 26.4379 46.1439 26.4379 45.8595C26.4375 45.4783 26.2859 45.1128 26.0163 44.8432C25.7468 44.5736 25.3813 44.422 25 44.4217Z" fill="#FFFBF7"/>
<path d="M43.746 25.6758H39.0595C38.8803 25.6758 38.7084 25.6046 38.5817 25.4779C38.455 25.3512 38.3838 25.1793 38.3838 25.0001C38.3838 24.8209 38.455 24.6491 38.5817 24.5224C38.7084 24.3956 38.8803 24.3245 39.0595 24.3245H43.746C43.9252 24.3245 44.097 24.3956 44.2238 24.5224C44.3505 24.6491 44.4217 24.8209 44.4217 25.0001C44.4217 25.1793 44.3505 25.3512 44.2238 25.4779C44.097 25.6046 43.9252 25.6758 43.746 25.6758Z" fill="#FFFBF7"/>
<path d="M45.8595 27.7893C45.3078 27.7893 44.7686 27.6257 44.3099 27.3192C43.8512 27.0128 43.4937 26.5772 43.2826 26.0675C43.0715 25.5578 43.0163 24.997 43.1239 24.456C43.2315 23.9149 43.4971 23.4179 43.8872 23.0279C44.2773 22.6378 44.7743 22.3722 45.3153 22.2645C45.8564 22.1569 46.4172 22.2121 46.9268 22.4233C47.4365 22.6344 47.8721 22.9919 48.1786 23.4505C48.4851 23.9092 48.6487 24.4485 48.6487 25.0001C48.6478 25.7396 48.3536 26.4485 47.8307 26.9714C47.3078 27.4943 46.5989 27.7884 45.8595 27.7893ZM45.8595 23.5623C45.5751 23.5623 45.2971 23.6466 45.0606 23.8046C44.8242 23.9626 44.6399 24.1872 44.5311 24.4499C44.4223 24.7126 44.3938 25.0017 44.4493 25.2806C44.5047 25.5595 44.6417 25.8157 44.8428 26.0168C45.0439 26.2179 45.3 26.3548 45.579 26.4103C45.8579 26.4658 46.147 26.4373 46.4097 26.3285C46.6724 26.2197 46.897 26.0354 47.055 25.7989C47.213 25.5625 47.2973 25.2845 47.2973 25.0001C47.2969 24.6189 47.1453 24.2534 46.8758 23.9838C46.6062 23.7142 46.2407 23.5626 45.8595 23.5623Z" fill="#FFFBF7"/>
<path d="M10.9406 25.6758H6.25408C6.07487 25.6758 5.90301 25.6046 5.7763 25.4779C5.64959 25.3512 5.5784 25.1793 5.5784 25.0001C5.5784 24.8209 5.64959 24.6491 5.7763 24.5224C5.90301 24.3956 6.07487 24.3245 6.25408 24.3245H10.9406C11.1198 24.3245 11.2916 24.3956 11.4183 24.5224C11.5451 24.6491 11.6162 24.8209 11.6162 25.0001C11.6162 25.1793 11.5451 25.3512 11.4183 25.4779C11.2916 25.6046 11.1198 25.6758 10.9406 25.6758Z" fill="#FFFBF7"/>
<path d="M4.14058 27.7893C3.58894 27.7893 3.04967 27.6257 2.59099 27.3192C2.13231 27.0128 1.77482 26.5772 1.56371 26.0675C1.3526 25.5578 1.29737 24.997 1.40499 24.456C1.51261 23.9149 1.77826 23.4179 2.16833 23.0279C2.55841 22.6378 3.05539 22.3722 3.59644 22.2645C4.13749 22.1569 4.6983 22.2121 5.20796 22.4233C5.71762 22.6344 6.15323 22.9919 6.45971 23.4505C6.76619 23.9092 6.92977 24.4485 6.92977 25.0001C6.92888 25.7396 6.63473 26.4485 6.11185 26.9714C5.58897 27.4943 4.88005 27.7884 4.14058 27.7893ZM4.14058 23.5623C3.85621 23.5623 3.57822 23.6466 3.34177 23.8046C3.10531 23.9626 2.92102 24.1872 2.8122 24.4499C2.70337 24.7126 2.6749 25.0017 2.73037 25.2806C2.78585 25.5595 2.92279 25.8157 3.12388 26.0168C3.32497 26.2179 3.58116 26.3548 3.86008 26.4103C4.13899 26.4658 4.42809 26.4373 4.69082 26.3285C4.95355 26.2197 5.17811 26.0354 5.3361 25.7989C5.49409 25.5625 5.57842 25.2845 5.57842 25.0001C5.57806 24.6189 5.42646 24.2534 5.15689 23.9838C4.88733 23.7142 4.52181 23.5626 4.14058 23.5623Z" fill="#FFFBF7"/>
<path d="M13.3109 41.3028H7.91627C7.73707 41.3028 7.56521 41.2316 7.43849 41.1049C7.31178 40.9782 7.24059 40.8063 7.24059 40.6271C7.24059 40.4479 7.31178 40.276 7.43849 40.1493C7.56521 40.0226 7.73707 39.9514 7.91627 39.9514H12.9386L15.6413 35.6163C15.7361 35.464 15.8875 35.3555 16.0622 35.3149C16.237 35.2742 16.4207 35.3046 16.573 35.3994C16.7253 35.4942 16.8338 35.6456 16.8744 35.8203C16.9151 35.9951 16.8847 36.1788 16.7899 36.3311L13.8899 40.9845C13.8287 41.0827 13.7433 41.1635 13.6419 41.2193C13.5406 41.275 13.4266 41.3037 13.3109 41.3028Z" fill="#FFFBF7"/>
<path d="M5.80413 43.4163C5.25251 43.4161 4.71332 43.2524 4.25473 42.9459C3.79613 42.6393 3.43874 42.2037 3.22774 41.694C3.01674 41.1843 2.9616 40.6235 3.06929 40.0825C3.17699 39.5415 3.44269 39.0446 3.83279 38.6546C4.22289 38.2646 4.71988 37.999 5.26091 37.8914C5.80194 37.7839 6.36272 37.8391 6.87234 38.0503C7.38196 38.2614 7.81753 38.6189 8.12398 39.0776C8.43043 39.5362 8.594 40.0755 8.594 40.6271C8.59328 41.3667 8.2991 42.0758 7.77603 42.5988C7.25297 43.1217 6.54377 43.4157 5.80413 43.4163ZM5.80413 39.1892C5.51978 39.1894 5.24186 39.2738 5.0055 39.4319C4.76913 39.59 4.58495 39.8146 4.47623 40.0773C4.3675 40.3401 4.33912 40.6291 4.39468 40.908C4.45024 41.1869 4.58723 41.443 4.78834 41.644C4.98945 41.845 5.24565 41.9819 5.52455 42.0373C5.80344 42.0928 6.09251 42.0642 6.3552 41.9554C6.61789 41.8466 6.84241 41.6623 7.00037 41.4258C7.15833 41.1894 7.24265 40.9114 7.24265 40.6271C7.24229 40.2457 7.09059 39.8801 6.82088 39.6105C6.55116 39.3409 6.18548 39.1894 5.80413 39.1892Z" fill="#FFFBF7"/>
<path d="M16.2163 14.7021C16.1014 14.7023 15.9883 14.6731 15.8879 14.6175C15.7874 14.5618 15.7027 14.4814 15.6419 14.3839L12.9392 10.0487H7.91627C7.73707 10.0487 7.56521 9.97755 7.43849 9.85084C7.31178 9.72412 7.24059 9.55226 7.24059 9.37306C7.24059 9.19386 7.31178 9.022 7.43849 8.89529C7.56521 8.76857 7.73707 8.69739 7.91627 8.69739H13.3109C13.4256 8.69734 13.5385 8.72654 13.6389 8.78222C13.7393 8.8379 13.8238 8.91823 13.8845 9.01563L16.7845 13.669C16.8481 13.7709 16.8833 13.888 16.8866 14.008C16.8898 14.1281 16.861 14.2469 16.8032 14.3521C16.7453 14.4573 16.6604 14.5452 16.5572 14.6068C16.4541 14.6683 16.3364 14.7012 16.2163 14.7021Z" fill="#FFFBF7"/>
<path d="M5.80413 12.1622C5.25251 12.1621 4.71332 11.9984 4.25473 11.6919C3.79613 11.3853 3.43874 10.9496 3.22774 10.44C3.01674 9.93029 2.9616 9.3695 3.06929 8.8285C3.17699 8.28749 3.44269 7.79057 3.83279 7.40056C4.22289 7.01055 4.71988 6.74497 5.26091 6.63741C5.80194 6.52984 6.36272 6.58512 6.87234 6.79624C7.38196 7.00737 7.81753 7.36487 8.12398 7.82353C8.43043 8.2822 8.594 8.82143 8.594 9.37305C8.59328 10.1127 8.2991 10.8218 7.77603 11.3448C7.25297 11.8677 6.54377 12.1617 5.80413 12.1622ZM5.80413 7.93522C5.51978 7.93535 5.24186 8.01979 5.0055 8.17786C4.76913 8.33594 4.58495 8.56054 4.47623 8.82328C4.3675 9.08603 4.33912 9.37511 4.39468 9.65397C4.45024 9.93284 4.58723 10.189 4.78834 10.39C4.98945 10.591 5.24565 10.7279 5.52455 10.7833C5.80344 10.8387 6.09251 10.8102 6.3552 10.7014C6.61789 10.5925 6.84241 10.4082 7.00037 10.1718C7.15833 9.93537 7.24265 9.6574 7.24265 9.37305C7.24229 8.99171 7.09059 8.62609 6.82088 8.3565C6.55116 8.08692 6.18548 7.93539 5.80413 7.93522Z" fill="#FFFBF7"/>
<path d="M42.0838 41.3028H36.6892C36.5744 41.3028 36.4615 41.2736 36.3612 41.2179C36.2608 41.1622 36.1763 41.0819 36.1156 40.9845L33.2129 36.3311C33.1181 36.1788 33.0877 35.9951 33.1283 35.8203C33.169 35.6456 33.2774 35.4942 33.4298 35.3994C33.5821 35.3046 33.7658 35.2742 33.9406 35.3149C34.1153 35.3555 34.2667 35.464 34.3615 35.6163L37.0642 39.9514H42.0865C42.2657 39.9514 42.4376 40.0226 42.5643 40.1493C42.691 40.276 42.7622 40.4479 42.7622 40.6271C42.7622 40.8063 42.691 40.9781 42.5643 41.1049C42.4376 41.2316 42.2657 41.3028 42.0865 41.3028H42.0838Z" fill="#FFFBF7"/>
<path d="M44.196 43.4163C43.6443 43.4163 43.1051 43.2527 42.6464 42.9462C42.1877 42.6397 41.8302 42.2041 41.6191 41.6945C41.408 41.1848 41.3528 40.624 41.4604 40.0829C41.568 39.5419 41.8337 39.0449 42.2237 38.6548C42.6138 38.2648 43.1108 37.9991 43.6519 37.8915C44.1929 37.7839 44.7537 37.8391 45.2634 38.0502C45.773 38.2613 46.2086 38.6188 46.5151 39.0775C46.8216 39.5362 46.9852 40.0754 46.9852 40.6271C46.9843 41.3665 46.6901 42.0755 46.1673 42.5983C45.6444 43.1212 44.9355 43.4154 44.196 43.4163ZM44.196 39.1892C43.9116 39.1892 43.6336 39.2736 43.3972 39.4316C43.1607 39.5896 42.9764 39.8141 42.8676 40.0768C42.7588 40.3396 42.7303 40.6287 42.7858 40.9076C42.8413 41.1865 42.9782 41.4427 43.1793 41.6438C43.3804 41.8449 43.6366 41.9818 43.9155 42.0373C44.1944 42.0928 44.4835 42.0643 44.7462 41.9555C45.009 41.8466 45.2335 41.6624 45.3915 41.4259C45.5495 41.1894 45.6338 40.9115 45.6338 40.6271C45.6333 40.2459 45.4816 39.8805 45.2121 39.611C44.9426 39.3414 44.5772 39.1898 44.196 39.1892Z" fill="#FFFBF7"/>
<path d="M33.7839 14.7021C33.6633 14.702 33.5451 14.6697 33.4412 14.6086C33.3374 14.5474 33.2518 14.4595 33.1934 14.3541C33.1349 14.2488 33.1057 14.1297 33.1088 14.0092C33.1119 13.8887 33.1471 13.7713 33.2109 13.669L36.1109 9.01563C36.1716 8.91823 36.2561 8.8379 36.3565 8.78222C36.4569 8.72654 36.5698 8.69734 36.6845 8.69739H42.0818C42.261 8.69739 42.4329 8.76857 42.5596 8.89529C42.6863 9.022 42.7575 9.19386 42.7575 9.37306C42.7575 9.55226 42.6863 9.72412 42.5596 9.85084C42.4329 9.97755 42.261 10.0487 42.0818 10.0487H37.0616L34.3589 14.3839C34.298 14.4815 34.2133 14.5619 34.1127 14.6176C34.012 14.6733 33.8989 14.7024 33.7839 14.7021Z" fill="#FFFBF7"/>
<path d="M44.196 12.1622C43.6443 12.1622 43.1051 11.9987 42.6464 11.6922C42.1877 11.3857 41.8302 10.9501 41.6191 10.4404C41.408 9.93077 41.3528 9.36996 41.4604 8.82891C41.568 8.28786 41.8337 7.79087 42.2237 7.4008C42.6138 7.01072 43.1108 6.74508 43.6519 6.63746C44.1929 6.52984 44.7537 6.58507 45.2634 6.79618C45.773 7.00729 46.2086 7.36478 46.5151 7.82346C46.8216 8.28214 46.9852 8.8214 46.9852 9.37305C46.9841 10.1125 46.6899 10.8213 46.1671 11.3441C45.6442 11.867 44.9354 12.1612 44.196 12.1622ZM44.196 7.93521C43.9116 7.93521 43.6336 8.01954 43.3972 8.17753C43.1607 8.33553 42.9764 8.56009 42.8676 8.82282C42.7588 9.08555 42.7303 9.37465 42.7858 9.65356C42.8413 9.93247 42.9782 10.1887 43.1793 10.3898C43.3804 10.5908 43.6366 10.7278 43.9155 10.7833C44.1944 10.8387 44.4835 10.8103 44.7462 10.7014C45.009 10.5926 45.2335 10.4083 45.3915 10.1719C45.5495 9.93542 45.6338 9.65743 45.6338 9.37305C45.6335 8.99182 45.4819 8.62631 45.2123 8.35674C44.9427 8.08717 44.5772 7.93557 44.196 7.93521Z" fill="#FFFBF7"/>
</svg>
