<svg width="1440" height="263" viewBox="0 0 1440 263" fill="none" xmlns="http://www.w3.org/2000/svg">
<path d="M219.014 1.91188C219.014 0.856076 219.732 0 220.618 0C221.506 0 222.224 0.856076 222.224 1.91188C222.224 2.96919 221.506 3.8267 220.618 3.8267C219.732 3.8267 219.014 2.96919 219.014 1.91188Z" fill="#2E252F"/>
<path d="M43.955 234.415L53.9274 167.766H74.3077V112.463H71.7847V107.458H81.682V85.9156H82.8833V107.458H89.7169V89.8099H90.9335V107.458H132.142V112.463H129.327V224.677H176.385V174.412H203.185V50.8964H200.734V44.8363H206.084V37.0791H212.244V17.5969H219.679V3.84717H221.467V17.5969H225.473L227.895 25.294H244.114V37.0791H286.561V44.8363H291.914V50.8964H289.462V131.259H324.979V210.221L364.392 192.76V116.117H358.031V110.486H369.217V95.2046H417.116V110.486H432.764V95.2046H440.808V110.486H448.852V95.2046H457.701V110.486H476.202V116.117H473.387V222.347H491.352V221.233H494.605V190.959H491.352V188.533H494.605V158.261H491.352V155.832H494.605V125.56H491.352V123.132H494.605V92.8602H491.352V90.4316H494.605V60.1599H491.352V57.7313H494.605V26.4039H489.034V23.9678H486.198V17.325H539.109V9.93881H537.388V7.80462H566.194V9.93881H564.473V17.325H577.587V23.9678H574.751V26.4039H569.18V57.7313H572.433V60.1599H569.18V90.4316H572.433V92.8602H569.18V123.132H572.433V125.56H569.18V155.832H572.433V158.261H569.18V188.533H572.433V190.959H569.18V221.233H572.433V223.661H569.18V248.399H587.24V152.807H659.905V222.347H671.703V5.72002H680.431V11.2965L696.538 15.2359V11.6134H705.266V17.3701L721.373 21.3095V17.1568H730.104V23.4451L746.208 27.3845V23.9587H754.939V29.5202L771.043 33.4597V30.5084H779.774V243.241H792.053V129.826H837.536V199.568H884.164V140.096H889.908V120.564H886.497V118.602H901.588V112.463H903.198V118.602H908.022V87.0795H909.229V118.602H915.516V120.564H911.817V140.096H942.59V185.463H972.548L988.196 243.241H1019.59V54.5984H1061.15V47.8416H1058.79V45.4686H1090.28V47.8416H1087.8V194.662H1107.4V145.848H1100.43V141.429H1149.75V111.938H1159.16V105.878H1180.16V111.938H1197.24V217.238H1253.3V139.142H1300.5V200.825H1341.46V240.292H1371V190.677H1409.83V232.977H1445V262.922H-4V234.415H43.955Z" fill="#2E252F"/>
</svg>
