<svg width="50" height="50" viewBox="0 0 50 50" fill="none" xmlns="http://www.w3.org/2000/svg">
<g clip-path="url(#clip0)">
<path d="M40.0009 15.5175H41.6677V18.851H40.0009V15.5175Z" fill="#FFFBF7"/>
<path d="M36.6673 15.5175H38.3341V18.851H36.6673V15.5175Z" fill="#FFFBF7"/>
<path d="M33.3337 15.5175H35.0005V18.851H33.3337V15.5175Z" fill="#FFFBF7"/>
<path d="M30.0002 15.5175H31.667V18.851H30.0002V15.5175Z" fill="#FFFBF7"/>
<path d="M40.0009 31.3518H41.6677V33.0186H40.0009V31.3518Z" fill="#FFFBF7"/>
<path d="M36.6673 31.3518H38.3341V33.0186H36.6673V31.3518Z" fill="#FFFBF7"/>
<path d="M33.3337 31.3518H35.0005V33.0186H33.3337V31.3518Z" fill="#FFFBF7"/>
<path d="M30.0002 31.3518H31.667V33.0186H30.0002V31.3518Z" fill="#FFFBF7"/>
<path d="M2.49849 28.789V33.8519C2.50133 36.1523 4.36546 38.016 6.66541 38.0189H21.7315L36.5656 45.1376C37.495 45.5828 38.5632 45.6398 39.5345 45.2955C40.5058 44.9517 41.3002 44.2351 41.7417 43.304L44.3187 37.887C46.1816 37.4345 47.4952 35.769 47.5013 33.8519V31.1984L49.6222 26.7433C50.5431 24.8056 49.7272 22.4881 47.7955 21.5546L47.5013 21.4138V15.5175C47.4985 13.2171 45.6347 11.3534 43.3344 11.3505H26.5324L13.4359 5.06515C12.5068 4.61998 11.4383 4.56301 10.4673 4.90727C9.49599 5.25112 8.70167 5.96772 8.25975 6.89876L6.11444 11.4063C4.0501 11.6785 2.505 13.4352 2.49849 15.5175V19.0036L0.377584 23.4594C-0.542884 25.3972 0.273004 27.7147 2.20428 28.6482L2.49849 28.789ZM47.5013 23.3321C48.305 23.9799 48.5593 25.0941 48.1166 26.0263L47.5013 27.3191V23.3321ZM40.2344 42.5834C39.9833 43.1148 39.5312 43.5242 38.9778 43.7207C38.424 43.9177 37.8148 43.8855 37.285 43.6316L25.5834 38.0189H42.4094L40.2344 42.5834ZM45.8345 33.8519C45.8345 35.2326 44.7151 36.3521 43.3344 36.3521H15.8327V26.7149C17.6862 28.498 20.1595 29.4925 22.7317 29.4893V27.8225C20.5921 27.825 18.5342 26.9993 16.9904 25.5181H45.8345V33.8519ZM16.6095 23.3337L18.2494 19.2128C18.5741 18.4144 19.3965 17.9354 20.2511 18.0477C21.1056 18.1596 21.7766 18.8343 21.8841 19.6897C21.9915 20.5446 21.5081 21.3646 20.708 21.6844L16.6095 23.3337ZM43.3344 13.0173C44.7151 13.0173 45.8345 14.1368 45.8345 15.5175V23.8513H19.7929L21.3298 23.2344C22.842 22.635 23.7567 21.0883 23.5541 19.4744C23.3514 17.8605 22.0822 16.5881 20.4692 16.381C18.8557 16.1738 17.3065 17.0845 16.7027 18.595L15.8327 20.7794V13.0173H43.3344ZM9.76579 7.61617C10.0165 7.08473 10.4685 6.67536 11.0224 6.47841C11.5758 6.28186 12.185 6.31401 12.7152 6.56793L22.6816 11.3505H7.98793L9.76579 7.61617ZM4.16526 15.5175C4.16526 14.1368 5.28471 13.0173 6.66541 13.0173H14.1659V20.1979L13.5274 18.595C12.9207 17.0923 11.3752 16.1889 9.76782 16.3976C8.16046 16.606 6.89655 17.8732 6.69308 19.4813C6.48921 21.0891 7.39707 22.6318 8.90147 23.2344L10.4372 23.8513H4.16526V15.5175ZM13.6218 23.3337L9.52326 21.6844C8.71551 21.3683 8.22435 20.545 8.32974 19.684C8.43514 18.8229 9.11064 18.143 9.97088 18.031C10.8311 17.9191 11.6576 18.4038 11.9799 19.2095L13.6218 23.3337ZM4.16526 25.5181H13.2401C11.6958 26.9993 9.63842 27.825 7.4988 27.8225V29.4893C9.96233 29.4917 12.3384 28.5782 14.1659 26.9265V36.3521H6.66541C5.28471 36.3521 4.16526 35.2326 4.16526 33.8519V25.5181ZM1.88362 24.1765L2.49849 22.8828V26.8707C1.69481 26.2229 1.44048 25.1087 1.88362 24.1765Z" fill="#FFFBF7"/>
</g>
<defs>
<clipPath id="clip0">
<rect width="50" height="50" fill="white"/>
</clipPath>
</defs>
</svg>
