<svg width="482" height="415" viewBox="0 0 482 415" fill="none" xmlns="http://www.w3.org/2000/svg">
<path d="M224.012 32.3429L172.906 1.67959C169.174 -0.559863 164.58 -0.559863 160.848 1.67959L109.685 32.3429C106.125 34.4675 104 38.2573 104 42.3917V103.661C104 107.795 106.182 111.585 109.685 113.71L160.79 144.373C166.188 147.474 170.667 145.809 172.849 144.373L223.954 113.71C227.514 111.585 229.639 107.795 229.639 103.661V42.3917C229.696 38.2573 227.514 34.4675 224.012 32.3429Z" fill="#2E252F"/>
<path d="M165.506 70.9286C164.859 71.202 164.34 71.6094 163.955 72.1563C163.57 72.7032 163.375 73.3616 163.375 74.1373C163.375 75.1306 163.793 75.8951 164.625 76.4364C165.411 76.9442 166.237 77.0726 167.102 76.8159C168.101 76.5257 168.776 75.817 169.133 74.6898C169.301 74.1708 169.385 73.5904 169.385 72.9431V70.1418C168.681 70.1641 168.023 70.2311 167.404 70.3482C166.784 70.4654 166.154 70.6607 165.506 70.9286ZM167.013 48.4119C153.207 48.4119 142.013 59.6061 142.013 73.4119C142.013 87.2177 153.207 98.4119 167.013 98.4119C180.819 98.4119 192.013 87.2177 192.013 73.4119C192.013 59.6061 180.819 48.4119 167.013 48.4119ZM169.011 63.0715C168.609 62.4632 167.889 62.1563 166.851 62.1563C166.779 62.1563 166.684 62.1619 166.555 62.173C166.433 62.1842 166.187 62.2567 165.835 62.3795C165.482 62.5058 165.147 62.6764 164.837 62.8873C164.53 63.0994 164.195 63.4453 163.832 63.9141C163.475 64.3884 163.19 64.9409 162.978 65.577L157.733 65.1083C157.733 64.4163 157.867 63.7299 158.123 63.0491C158.386 62.3683 158.782 61.7154 159.318 61.096C159.853 60.471 160.495 59.9241 161.243 59.4554C161.991 58.9811 162.895 58.6072 163.944 58.3226C164.998 58.038 166.126 57.8985 167.342 57.8985C168.531 57.8985 169.608 58.0436 170.568 58.3282C171.527 58.6183 172.303 58.9699 172.878 59.394C173.432 59.7935 173.919 60.2775 174.323 60.8282C174.708 61.3639 174.976 61.8605 175.127 62.3181C175.277 62.7757 175.35 63.1942 175.35 63.5904V73.7746C175.35 74.1317 175.428 74.5 175.59 74.8795C175.752 75.259 175.941 75.5938 176.159 75.884C176.377 76.1741 176.6 76.4364 176.829 76.682C177.058 76.9219 177.253 77.1116 177.42 77.2344L177.649 77.4241L173.603 81.2969C173.129 80.8672 172.66 80.4375 172.197 79.9911C171.734 79.5447 171.388 79.2099 171.165 78.9811L170.824 78.6351C170.69 78.5067 170.545 78.317 170.378 78.0659C169.926 78.7467 169.345 79.3382 168.642 79.8404C167.934 80.3427 167.175 80.711 166.371 80.9398C165.562 81.1686 164.731 81.3025 163.877 81.336C163.023 81.3695 162.203 81.2523 161.427 80.9732C160.651 80.6942 159.948 80.3203 159.329 79.8404C158.709 79.3605 158.218 78.7132 157.85 77.8873C157.482 77.0614 157.297 76.1295 157.297 75.0748C157.297 74.1038 157.465 73.2166 157.794 72.413C158.129 71.6038 158.553 70.9342 159.078 70.3985C159.602 69.8628 160.233 69.3828 160.975 68.9643C161.717 68.5458 162.448 68.2166 163.162 67.9766C163.877 67.7422 164.647 67.5413 165.478 67.3795C166.31 67.2177 167.018 67.1116 167.61 67.0614C168.202 67.0112 168.793 66.9721 169.385 66.9498V64.7512C169.385 63.9978 169.256 63.4398 169.011 63.0715ZM179.083 84.2545C178.927 84.4386 178.665 84.6898 178.296 85.0078C177.928 85.3259 177.359 85.7166 176.594 86.1853C175.83 86.6541 174.987 87.0782 174.083 87.4632C173.174 87.8482 172.058 88.1831 170.729 88.4677C169.407 88.7523 168.04 88.8918 166.639 88.8918C165.222 88.8918 163.81 88.7132 162.392 88.3561C160.975 87.9989 159.736 87.5581 158.665 87.0335C157.599 86.509 156.566 85.9063 155.59 85.2366C154.608 84.5614 153.821 83.9587 153.224 83.423C152.632 82.8873 152.13 82.3795 151.728 81.9107C151.633 81.8047 151.572 81.7099 151.55 81.6262C151.527 81.5424 151.533 81.4699 151.566 81.4197C151.6 81.3695 151.65 81.3304 151.712 81.2969C151.778 81.2673 151.852 81.2559 151.924 81.2637C151.997 81.2715 152.066 81.2984 152.125 81.3416C154.407 82.692 156.193 83.6462 157.476 84.2099C162.102 86.2411 166.851 86.7601 171.723 85.7668C173.983 85.3036 176.304 84.5279 178.693 83.4342C178.871 83.3672 179.027 83.3505 179.156 83.384C179.284 83.4174 179.351 83.5179 179.351 83.6853C179.351 83.8416 179.262 84.0369 179.083 84.2545ZM182.426 82.6362C182.325 83.2556 182.152 83.8416 181.918 84.4107C181.516 85.365 181.008 86.0849 180.406 86.5536C180.205 86.7154 180.049 86.7657 179.943 86.7099C179.837 86.654 179.837 86.5145 179.943 86.2969C180.194 85.7779 180.456 85.0804 180.735 84.1931C181.014 83.3114 181.053 82.7422 180.852 82.4911C180.791 82.4074 180.702 82.346 180.573 82.2902C180.45 82.24 180.289 82.2065 180.093 82.1842C179.898 82.1619 179.719 82.1507 179.569 82.1395C179.412 82.1284 179.206 82.1284 178.944 82.1395C178.681 82.1507 178.497 82.1619 178.38 82.173C178.062 82.2041 177.744 82.2319 177.426 82.2567C177.353 82.2679 177.275 82.2791 177.197 82.2846C177.113 82.2902 177.046 82.2958 177.002 82.3014L176.851 82.3181C176.795 82.3237 176.756 82.3293 176.728 82.3293H176.55L176.494 82.3181L176.46 82.2902L176.433 82.24C176.36 82.0558 176.639 81.827 177.27 81.548C177.9 81.269 178.514 81.096 179.106 81.0291C179.652 80.9453 180.294 80.9454 181.031 81.0123C181.767 81.0793 182.219 81.2188 182.387 81.4253C182.515 81.6206 182.526 82.0224 182.426 82.6362Z" fill="#FFFBF7"/>
<path d="M155.877 239.963V178.694C155.877 174.559 153.695 170.77 150.192 168.645L99.0867 137.982C95.3543 135.742 90.7606 135.742 87.0281 137.982L35.8652 168.645C32.3051 170.77 30.1805 174.559 30.1805 178.694V239.963C30.1805 244.097 32.3625 247.887 35.8652 250.012L87.0281 280.675C92.4258 283.776 96.9047 282.111 99.0867 280.675L150.192 250.012C153.695 247.887 155.877 244.097 155.877 239.963Z" fill="#2E252F"/>
<g clip-path="url(#clip0)">
<path d="M104.455 216.642C110.378 213.389 114.869 210.911 115.256 210.718C116.494 210.06 117.772 208.317 115.256 206.963C114.443 206.538 110.068 204.137 104.455 201.04L96.6736 208.899L104.455 216.641V216.642Z" fill="#FFD900"/>
<path d="M96.6735 208.899L71.8967 233.87C72.4783 233.947 73.1348 233.793 73.9089 233.367C75.5341 232.478 92.7626 223.069 104.455 216.643L96.6735 208.899Z" fill="#F43249"/>
<path d="M96.6736 208.899L104.455 201.079C104.455 201.079 75.6517 185.359 73.909 184.432C73.2524 184.043 72.5166 183.927 71.8582 184.043L96.6736 208.899Z" fill="#00EE76"/>
<path d="M96.6735 208.899L71.8582 184.043C70.8511 184.276 70 185.165 70 186.985V230.928C70 232.593 70.6586 233.793 71.8967 233.908L96.6735 208.899Z" fill="#00D3FF"/>
</g>
<path d="M218.012 300.343L166.906 269.68C163.174 267.44 158.58 267.44 154.848 269.68L103.685 300.343C100.125 302.467 98 306.257 98 310.392V371.661C98 375.795 100.182 379.585 103.685 381.71L154.848 412.373C160.245 415.474 164.724 413.809 166.906 412.373L218.012 381.71C221.572 379.585 223.696 375.795 223.696 371.661V310.392C223.696 306.257 221.572 302.467 218.012 300.343Z" fill="#2E252F"/>
<g clip-path="url(#clip1)">
<path d="M160.041 339.672H153.631V334.753H151.692V347.245H153.631V341.325H160.041V347.245H161.96V334.753H160.041V339.672ZM141.129 334.712C140.425 334.691 138.996 334.691 137.73 334.691V347.235H139.69V342.479C140.18 342.479 141.19 342.438 142.007 342.417C143.15 342.397 146.13 341.826 146.109 338.386C146.14 334.508 141.843 334.712 141.129 334.712ZM141.027 340.815H139.731V336.294H140.833C141.343 336.294 144.354 336.069 144.446 338.406C144.568 340.703 142.19 340.815 141.027 340.815ZM123.043 334.691L123.064 347.235H130.933V345.602H125.023V341.346H129.208C129.208 340.989 129.188 340.468 129.208 339.784H125.023V336.365H130.933C130.912 335.375 130.933 334.691 130.933 334.691H123.043ZM111.602 337.753C111.602 335.702 114.317 335.62 115.92 336.937C116.471 335.355 116.512 335.243 116.512 335.243C111.837 332.997 109.704 335.967 109.704 337.866C109.704 342.407 116.144 341.438 115.215 344.632C114.889 345.796 112.817 346.459 110.429 345.01C110.255 345.5 109.969 346.092 109.684 346.684C112.837 348.337 116.93 347.541 117.063 344.132C117.246 339.846 111.602 340.152 111.602 337.753ZM194.313 338.213C194.027 334.487 190.414 334.773 189.618 334.732C188.955 334.712 187.546 334.691 186.332 334.691V347.214H188.292V341.948C188.955 341.948 189.169 341.948 190.169 341.907L193.742 347.214H196.12L192.17 341.581C193.231 341.193 194.466 340.284 194.313 338.213ZM189.506 340.478C189.067 340.478 188.73 340.478 188.292 340.458V336.222H189.322C189.812 336.222 192.384 336.069 192.609 338.121C192.884 340.55 190.037 340.478 189.506 340.478ZM207.244 334.712H204.979L200.876 347.255H202.815C203.427 344.989 203.631 344.346 203.631 344.346L208.704 344.326C209.296 346 209.735 347.276 209.735 347.276H211.745L207.244 334.712ZM204.08 342.907L206.06 336.712H206.081L208.153 342.887L204.08 342.907ZM174.125 334.355C170.135 334.355 167.532 337.304 167.532 340.968C167.532 344.632 170.135 347.582 174.125 347.582C178.116 347.582 180.719 344.632 180.719 340.968C180.719 337.304 178.116 334.355 174.125 334.355ZM174.125 345.775C171.196 345.775 169.543 343.642 169.543 340.968C169.543 338.325 171.196 336.161 174.125 336.161C177.034 336.161 178.708 338.294 178.708 340.968C178.708 343.612 177.055 345.775 174.125 345.775Z" fill="#FFFBF7"/>
</g>
<path d="M380.877 103.963V42.6937C380.877 38.5593 378.695 34.7695 375.192 32.6449L324.087 1.98159C320.354 -0.257861 315.76 -0.257861 312.028 1.98159L260.865 32.6449C257.305 34.7695 255.18 38.5593 255.18 42.6937V103.963C255.18 108.097 257.362 111.887 260.865 114.012L312.028 144.675C317.426 147.776 321.905 146.11 324.087 144.675L375.192 114.012C378.695 111.887 380.877 108.097 380.877 103.963Z" fill="#2E252F"/>
<path d="M277.532 79.6666C275.052 79.6523 273 74.5888 273 72.01C273 67.7977 276.16 66.8755 277.378 66.8755C277.927 66.8755 278.513 67.091 279.03 67.2817C279.391 67.4148 279.765 67.5521 279.973 67.5521C280.097 67.5521 280.39 67.4353 280.649 67.3328C281.202 67.1129 281.889 66.8397 282.689 66.8397C282.69 66.8397 282.692 66.8397 282.694 66.8397C283.291 66.8397 285.103 66.9708 286.192 68.6064L286.447 68.9898L286.08 69.2668C285.555 69.6626 284.598 70.3845 284.598 71.8146C284.598 73.5083 285.682 74.1596 286.203 74.4729C286.432 74.6112 286.67 74.7538 286.67 75.0656C286.67 75.2692 285.045 79.6413 282.685 79.6413C282.108 79.6413 281.7 79.4678 281.34 79.3147C280.975 79.1597 280.661 79.0262 280.142 79.0262C279.879 79.0262 279.546 79.1507 279.194 79.2828C278.712 79.4625 278.167 79.6666 277.548 79.6666H277.532Z" fill="white"/>
<path d="M282.939 63C283 65.216 281.415 66.7534 279.833 66.657C279.572 64.8885 281.415 63 282.939 63Z" fill="white"/>
<path d="M293.127 67.6094H295.189V80H293.127V67.6094ZM293.127 64.8594V62.7812H295.189V64.8594H293.127ZM303.049 80V64.5156H297.189V62.7812H311.049V64.5156H305.283V80H303.049ZM320.955 67.6094H323.017V80H320.955V77.8438C320.528 78.5 320.106 78.9948 319.689 79.3281C319.283 79.6615 318.861 79.9115 318.424 80.0781C317.986 80.2552 317.507 80.3438 316.986 80.3438C315.84 80.3438 314.866 80.0208 314.064 79.375C313.273 78.7292 312.877 77.4271 312.877 75.4688V67.6094H314.939V74.5938C314.939 76.4062 315.179 77.5052 315.658 77.8906C316.137 78.2656 316.731 78.4531 317.439 78.4531C318.054 78.4531 318.632 78.276 319.174 77.9219C319.726 77.5573 320.158 77.0521 320.471 76.4062C320.793 75.75 320.955 74.849 320.955 73.7031V67.6094ZM328.346 80H326.283V67.6094H328.346V69.75C328.783 69.0729 329.205 68.5729 329.611 68.25C330.028 67.9271 330.46 67.6823 330.908 67.5156C331.356 67.349 331.856 67.2656 332.408 67.2656C333.179 67.2656 333.872 67.4271 334.486 67.75C335.111 68.0625 335.59 68.5312 335.924 69.1562C336.267 69.7708 336.439 70.7552 336.439 72.1094V80H334.377V73C334.377 71.8854 334.304 71.099 334.158 70.6406C334.012 70.1823 333.721 69.8229 333.283 69.5625C332.856 69.2917 332.392 69.1562 331.892 69.1562C331.288 69.1562 330.71 69.3333 330.158 69.6875C329.616 70.0417 329.179 70.5417 328.846 71.1875C328.512 71.8229 328.346 72.7292 328.346 73.9062V80ZM347.642 76.8125H349.705V76.9219C349.705 77.474 349.486 78.0365 349.049 78.6094C348.611 79.1719 348.033 79.6042 347.314 79.9062C346.596 80.1979 345.773 80.3438 344.846 80.3438C342.96 80.3438 341.502 79.7344 340.471 78.5156C339.45 77.2969 338.939 75.7552 338.939 73.8906C338.939 71.9844 339.481 70.4062 340.564 69.1562C341.648 67.8958 343.043 67.2656 344.752 67.2656C345.689 67.2656 346.538 67.4688 347.299 67.875C348.07 68.2812 348.674 68.9167 349.111 69.7812C349.559 70.6354 349.783 71.8333 349.783 73.375V74.0625H340.986C340.986 75.3854 341.34 76.4792 342.049 77.3438C342.767 78.1979 343.757 78.625 345.017 78.625C345.924 78.625 346.585 78.4531 347.002 78.1094C347.429 77.7552 347.642 77.3594 347.642 76.9219V76.8125ZM341.111 72.5156H347.799V72.2656C347.799 71.6927 347.658 71.1354 347.377 70.5938C347.106 70.0417 346.726 69.6354 346.236 69.375C345.747 69.1146 345.179 68.9844 344.533 68.9844C343.762 68.9844 343.049 69.2969 342.392 69.9219C341.747 70.5365 341.32 71.401 341.111 72.5156ZM351.861 76.7344H353.924V76.7656C353.924 77.3073 354.127 77.7552 354.533 78.1094C354.95 78.4531 355.642 78.625 356.611 78.625C357.455 78.625 358.142 78.4167 358.674 78C359.205 77.5833 359.471 77.0938 359.471 76.5312C359.471 75.7708 358.95 75.2344 357.908 74.9219L356.861 74.5938L356.158 74.375L354.736 73.9375C353.101 73.3333 352.283 72.3385 352.283 70.9531C352.283 69.974 352.679 69.1146 353.471 68.375C354.262 67.6354 355.434 67.2656 356.986 67.2656C358.528 67.2656 359.622 67.5833 360.267 68.2188C360.924 68.8438 361.252 69.5417 361.252 70.3125V70.3594H359.174V70.3125C359.174 69.8958 358.965 69.5729 358.549 69.3438C358.132 69.1042 357.575 68.9844 356.877 68.9844C356.054 68.9844 355.418 69.1562 354.971 69.5C354.533 69.8438 354.314 70.2656 354.314 70.7656C354.314 71.151 354.455 71.4635 354.736 71.7031C355.028 71.9427 355.512 72.1615 356.189 72.3594L357.174 72.6406L357.908 72.8438C358.908 73.1354 359.533 73.3385 359.783 73.4531C360.033 73.5677 360.283 73.7188 360.533 73.9062C360.877 74.1771 361.132 74.5 361.299 74.875C361.465 75.25 361.549 75.6875 361.549 76.1875C361.549 77.3646 361.127 78.3542 360.283 79.1562C359.45 79.9479 358.226 80.3438 356.611 80.3438C355.59 80.3438 354.741 80.1927 354.064 79.8906C353.398 79.5885 352.861 79.1719 352.455 78.6406C352.059 78.099 351.861 77.474 351.861 76.7656V76.7344Z" fill="white"/>
<path d="M452.999 167.931L401.893 137.268C398.161 135.028 393.567 135.028 389.835 137.268L338.672 167.931C335.112 170.055 332.987 173.845 332.987 177.98V239.249C332.987 243.383 335.169 247.173 338.672 249.298L389.777 279.961C395.175 283.062 399.654 281.397 401.836 279.961L452.941 249.298C456.502 247.173 458.626 243.383 458.626 239.249V177.98C458.684 173.845 456.502 170.055 452.999 167.931Z" fill="#2E252F"/>
<g clip-path="url(#clip2)">
<path d="M431.435 205.599C431.964 205.599 432.399 205.324 432.458 204.968L432.98 199.063C432.98 198.479 432.296 198 431.436 198C430.577 198 429.894 198.479 429.894 199.063L430.416 204.968C430.474 205.324 430.909 205.599 431.436 205.599H431.435ZM428.243 207.443C428.508 206.986 428.488 206.472 428.209 206.243L423.355 202.838C422.85 202.546 422.093 202.898 421.664 203.643C421.233 204.386 421.309 205.217 421.813 205.51L427.187 208.012C427.523 208.137 427.981 207.897 428.245 207.44L428.243 207.443ZM434.629 207.44C434.894 207.897 435.35 208.137 435.686 208.012L441.061 205.51C441.567 205.218 441.639 204.387 441.213 203.643C440.781 202.899 440.023 202.546 439.52 202.839L434.665 206.243C434.388 206.472 434.367 206.986 434.631 207.444L434.629 207.44ZM431.435 212.976C431.964 212.976 432.399 213.248 432.458 213.604L432.98 219.508C432.98 220.094 432.296 220.572 431.436 220.572C430.577 220.572 429.894 220.094 429.894 219.508L430.416 213.604C430.474 213.248 430.909 212.976 431.436 212.976H431.435ZM434.629 211.131C434.894 210.672 435.35 210.434 435.686 210.56L441.061 213.061C441.567 213.354 441.639 214.186 441.213 214.93C440.781 215.672 440.023 216.025 439.52 215.733L434.665 212.331C434.388 212.102 434.367 211.587 434.631 211.13H434.629L434.629 211.131ZM428.243 211.13C428.508 211.587 428.488 212.102 428.209 212.332L423.355 215.734C422.85 216.025 422.093 215.672 421.664 214.93C421.233 214.186 421.309 213.354 421.813 213.062L427.187 210.561C427.523 210.435 427.981 210.672 428.245 211.131H428.243" fill="#FFFBF7"/>
<path d="M400.817 212.321C400.817 212.502 400.801 212.689 400.751 212.853C400.545 213.535 399.839 214.111 398.956 214.111C398.22 214.111 397.635 213.693 397.635 212.81C397.635 211.458 399.123 211.084 400.817 211.093L400.817 212.321V212.321ZM403.474 209.964C403.474 207.735 402.521 205.773 399.302 205.773C397.65 205.773 396.339 206.237 395.623 206.651L396.147 208.443C396.801 208.03 397.844 207.688 398.831 207.688C400.463 207.684 400.731 208.613 400.731 209.208V209.348C397.172 209.343 394.922 210.576 394.922 213.086C394.922 214.62 396.068 216.057 398.06 216.057C399.284 216.057 400.309 215.568 400.922 214.785H400.983C400.983 214.785 401.389 216.486 403.63 215.835C403.513 215.128 403.474 214.373 403.474 213.465L403.474 209.964H403.474ZM348.018 202.737C348.018 202.737 350.344 212.267 350.715 213.814C351.148 215.619 351.929 216.284 354.179 215.835L355.632 209.927C356 208.458 356.246 207.411 356.484 205.919H356.525C356.691 207.427 356.928 208.463 357.231 209.931C357.231 209.931 357.822 212.614 358.125 214.022C358.428 215.43 359.273 216.318 361.477 215.835L364.938 202.736H362.145L360.963 208.4C360.645 210.048 360.357 211.337 360.134 212.844H360.095C359.893 211.35 359.636 210.114 359.313 208.508L358.084 202.736H355.173L353.857 208.362C353.484 210.072 353.135 211.452 352.914 212.909H352.874C352.646 211.537 352.344 209.802 352.017 208.147C352.017 208.147 351.236 204.123 350.961 202.736L348.018 202.737ZM370.221 212.321C370.221 212.502 370.205 212.689 370.155 212.853C369.949 213.535 369.243 214.111 368.36 214.111C367.623 214.111 367.039 213.693 367.039 212.81C367.039 211.458 368.527 211.084 370.221 211.093L370.221 212.321V212.321ZM372.878 209.964C372.878 207.735 371.925 205.773 368.707 205.773C367.054 205.773 365.742 206.237 365.026 206.651L365.55 208.443C366.204 208.03 367.247 207.688 368.234 207.688C369.868 207.684 370.135 208.613 370.135 209.208V209.348C366.574 209.343 364.326 210.576 364.326 213.086C364.326 214.62 365.471 216.057 367.461 216.057C368.687 216.057 369.712 215.568 370.326 214.785H370.386C370.386 214.785 370.793 216.486 373.033 215.835C372.916 215.128 372.878 214.373 372.878 213.465V209.964ZM377.312 213.055V202.737H374.652V215.835H377.312V213.055ZM412.115 202.737V212.399C412.115 213.732 412.366 214.665 412.902 215.236C413.371 215.735 414.143 216.058 415.068 216.058C415.855 216.058 416.628 215.908 416.993 215.772L416.959 213.694C416.687 213.761 416.375 213.814 415.949 213.814C415.042 213.814 414.739 213.233 414.739 212.038V208.34H417.056V205.834H414.739V202.737H412.115ZM405.248 205.995V215.835H407.992V210.797C407.992 210.525 408.009 210.287 408.052 210.07C408.255 209.015 409.062 208.34 410.221 208.34C410.539 208.34 410.767 208.375 411.013 208.41V205.834C410.806 205.793 410.666 205.773 410.409 205.773C409.384 205.773 408.219 206.434 407.73 207.852H407.656V205.995H405.248ZM379.175 205.995V215.835H381.849V210.065C381.849 209.794 381.881 209.508 381.974 209.26C382.196 208.679 382.737 207.998 383.6 207.998C384.679 207.998 385.183 208.911 385.183 210.227V215.835H387.855V209.994C387.855 209.736 387.89 209.424 387.966 209.197C388.186 208.535 388.768 207.998 389.57 207.998C390.664 207.998 391.189 208.894 391.189 210.443V215.834H393.863V210.039C393.863 206.982 392.311 205.772 390.558 205.772C389.783 205.772 389.171 205.967 388.617 206.306C388.151 206.593 387.734 206.999 387.37 207.532H387.331C386.908 206.472 385.914 205.773 384.619 205.773C382.954 205.773 382.207 206.617 381.753 207.332H381.713V205.995H379.175" fill="#FFFBF7"/>
<path d="M442.409 215.357H442.449C442.503 215.357 442.537 215.335 442.537 215.302C442.537 215.265 442.505 215.244 442.455 215.244C442.438 215.244 442.421 215.248 442.409 215.248V215.358V215.357L442.409 215.357ZM442.403 215.622H442.261V215.159C442.293 215.153 442.368 215.142 442.465 215.142C442.569 215.142 442.616 215.156 442.65 215.18C442.679 215.2 442.7 215.234 442.7 215.281C442.7 215.329 442.657 215.369 442.592 215.386V215.392C442.645 215.406 442.673 215.444 442.689 215.511C442.703 215.578 442.712 215.605 442.721 215.623H442.56C442.546 215.605 442.537 215.564 442.528 215.524C442.519 215.477 442.497 215.453 442.449 215.453H442.403L442.403 215.622ZM442.462 215.008C442.258 215.008 442.104 215.175 442.104 215.387C442.104 215.593 442.258 215.762 442.467 215.762C442.677 215.765 442.832 215.593 442.832 215.383C442.832 215.174 442.677 215.008 442.465 215.008H442.462ZM442.471 214.883C442.755 214.883 442.982 215.107 442.982 215.383C442.982 215.663 442.755 215.887 442.467 215.887C442.179 215.887 441.949 215.663 441.949 215.383C441.949 215.107 442.179 214.883 442.467 214.883H442.47" fill="#FFFBF7"/>
</g>
<path d="M297.328 167.988L246.223 137.325C242.49 135.086 237.896 135.086 234.164 137.325L183.001 167.988C179.441 170.113 177.316 173.903 177.316 178.037V239.306C177.316 243.441 179.498 247.23 183.001 249.355L234.164 280.018C239.562 283.119 244.041 281.454 246.223 280.018L297.328 249.355C300.888 247.23 303.013 243.441 303.013 239.306V178.037C303.013 173.903 300.888 170.113 297.328 167.988Z" fill="#2E252F"/>
<path d="M292.149 202.115H291.671V200.92L291.193 201.708H290.954L290.715 200.92V202.115H290.237V200.083H290.715L291.193 201.182L291.671 200.083H292.149V202.115ZM289.998 200.442H289.52V202.115H289.042V200.442H288.564V200.083H289.998V200.442ZM287.369 207.97H285.935V203.381L284.262 206.369H283.306L281.872 203.381V207.97H280.199V200.083H281.872L283.784 204.337L285.935 200.083H287.369V207.97ZM278.048 207.97H276.375L275.897 206.584H273.268L272.79 207.97H271.117L273.985 200.083H275.18L278.048 207.97ZM275.658 205.269L274.702 202.401L273.746 205.269H275.658ZM268.727 207.97H263.469V200.083H268.727V201.445H265.142V203.31H268.249V204.672H265.142V206.608H268.727V207.97ZM261.079 201.445H259.167V207.97H257.494V201.445H255.343V200.083H261.079V201.445ZM253.431 205.652C253.431 207.277 251.997 208.018 250.563 208.042C249.129 208.042 248.173 207.707 247.695 206.99L248.651 206.01C249.129 206.44 249.607 206.679 250.563 206.679C251.519 206.679 251.997 206.345 251.997 205.7C251.997 205.102 251.519 204.839 251.041 204.744L250.085 204.624C248.651 204.433 247.934 203.692 247.934 202.401C247.934 201.684 248.173 201.111 248.651 200.657C249.129 200.226 249.846 200.011 250.563 200.011C251.758 200.011 252.475 200.322 253.192 200.92L252.236 201.899C251.758 201.541 251.28 201.35 250.563 201.35C249.846 201.398 249.368 201.66 249.368 202.354C249.368 202.903 249.846 203.166 250.324 203.214L251.28 203.357C252.475 203.501 253.431 204.313 253.431 205.652ZM241.242 204.218C241.242 206.369 239.33 208.113 237.179 208.113C235.028 208.113 233.355 206.369 233.355 204.218C233.355 202.091 235.028 200.346 237.179 200.346C239.33 200.346 241.242 202.091 241.242 204.218ZM237.179 197C233.355 197 230.009 200.203 230.009 204.194L225.468 210.671C225.229 210.647 225.229 210.623 224.99 210.623C224.034 210.623 223.078 210.91 222.122 211.388L201.712 203.166C201.162 200.728 198.987 198.912 196.406 198.912C193.443 198.912 191 201.35 191 204.337C191 207.301 193.443 209.739 196.406 209.739C197.434 209.739 198.366 209.476 199.179 208.974L219.733 217.195C220.211 219.705 222.362 221.378 224.991 221.378C227.62 221.378 230.01 219.227 230.249 216.574L237.18 211.507C241.243 211.507 244.589 208.257 244.589 204.242C244.588 200.25 241.242 197 237.179 197ZM237.179 199.39C240.047 199.39 242.198 201.565 242.198 204.242C242.198 206.942 240.047 209.117 237.179 209.117C234.55 209.117 232.399 206.942 232.399 204.242C232.399 201.565 234.55 199.39 237.179 199.39ZM196.406 200.346C197.936 200.346 199.274 201.182 199.944 202.449L197.96 201.66C196.358 201.087 194.59 201.876 193.944 203.453C193.323 205.054 194.04 206.847 195.594 207.54L197.267 208.209C197.003 208.281 196.717 208.305 196.406 208.305C194.207 208.305 192.439 206.536 192.439 204.337C192.439 202.115 194.207 200.346 196.406 200.346ZM224.99 212.057C227.141 212.057 228.814 213.849 228.814 216.048C228.814 218.271 227.141 219.944 224.99 219.944C223.317 219.944 222.122 219.227 221.405 217.912C222.122 218.271 222.6 218.51 223.317 218.749C224.99 219.466 226.663 218.51 227.38 216.98C227.858 215.499 227.38 213.467 225.707 212.822L224.034 212.153C224.273 212.105 224.751 212.057 224.99 212.057Z" fill="#FFFBF7"/>
<path d="M353.094 287.699L321.968 269.023C319.694 267.659 316.897 267.659 314.623 269.023L283.462 287.699C281.294 288.993 280 291.301 280 293.819V331.135C280 333.653 281.329 335.961 283.462 337.255L314.588 355.931C317.876 357.82 320.604 356.805 321.933 355.931L353.059 337.255C355.227 335.961 356.521 333.653 356.521 331.135V293.819C356.556 291.301 355.227 288.993 353.094 287.699Z" fill="#6666FF"/>
<path d="M79.0937 66.6986L47.9677 48.023C45.6944 46.659 42.8966 46.659 40.6234 48.023L9.46233 66.6986C7.294 67.9926 6 70.3008 6 72.8189V110.135C6 112.653 7.32897 114.961 9.46233 116.255L40.5884 134.931C43.8758 136.82 46.6037 135.805 47.9327 134.931L79.0588 116.255C81.2271 114.961 82.5211 112.653 82.5211 110.135V72.8189C82.5561 70.3008 81.2271 67.9926 79.0937 66.6986Z" fill="#6666FF"/>
<path d="M478.094 63.6986L446.968 45.023C444.694 43.659 441.897 43.659 439.623 45.023L408.462 63.6986C406.294 64.9926 405 67.3008 405 69.8189V107.135C405 109.653 406.329 111.961 408.462 113.255L439.588 131.931C442.876 133.82 445.604 132.805 446.933 131.931L478.059 113.255C480.227 111.961 481.521 109.653 481.521 107.135V69.8189C481.556 67.3008 480.227 64.9926 478.094 63.6986Z" fill="#6666FF"/>
<path d="M73.0937 298.699L41.9677 280.023C39.6944 278.659 36.8966 278.659 34.6234 280.023L3.46233 298.699C1.294 299.993 0 302.301 0 304.819V342.135C0 344.653 1.32897 346.961 3.46233 348.255L34.5884 366.931C37.8758 368.82 40.6037 367.805 41.9327 366.931L73.0588 348.255C75.2271 346.961 76.5211 344.653 76.5211 342.135V304.819C76.5561 302.301 75.2271 299.993 73.0937 298.699Z" fill="#6666FF"/>
<defs>
<clipPath id="clip0">
<rect width="46.7153" height="50" fill="white" transform="translate(70 184)"/>
</clipPath>
<clipPath id="clip1">
<rect width="102.062" height="13.2272" fill="white" transform="translate(109.684 334.355)"/>
</clipPath>
<clipPath id="clip2">
<rect width="95" height="22.572" fill="white" transform="translate(348 198)"/>
</clipPath>
</defs>
</svg>
