<svg width="1440" height="264" viewBox="0 0 1440 264" fill="none" xmlns="http://www.w3.org/2000/svg">
<path d="M1218.37 2.44716C1218.37 1.39135 1217.66 0.535278 1216.78 0.535278C1215.89 0.535278 1215.18 1.39135 1215.18 2.44716C1215.18 3.50447 1215.89 4.36198 1216.78 4.36198C1217.66 4.36198 1218.37 3.50447 1218.37 2.44716Z" fill="#FFFBF7"/>
<path d="M1392.34 234.95L1382.43 168.301H1362.18V112.998H1364.69V107.994H1354.85V86.4508H1353.66V107.994H1346.87V90.3451H1345.66V107.994H1304.7V112.998H1307.5V225.212H1260.73V174.947H1234.1V51.4316H1236.54V45.3715H1231.22V37.6143H1225.1V18.1321H1217.71V4.38239H1215.93V18.1321H1211.95L1209.55 25.8292H1193.43V37.6143H1151.24V45.3715H1145.92V51.4316H1148.36V131.794H1113.06V210.756L1073.9 193.295V116.652H1080.22V111.021H1069.1V95.7399H1021.5V111.021H1005.95V95.7399H997.954V111.021H989.96V95.7399H981.166V111.021H962.781V116.652H965.578V222.882H947.724V221.768H944.491V191.495H947.724V189.068H944.491V158.796H947.724V156.367H944.491V126.096H947.724V123.667H944.491V93.3954H947.724V90.9669H944.491V60.6951H947.724V58.2666H944.491V26.9391H950.029V24.503H952.847V17.8602H900.264V10.474H901.975V8.33983H873.348V10.474H875.058V17.8602H862.025V24.503H864.843V26.9391H870.381V58.2666H867.148V60.6951H870.381V90.9669H867.148V93.3954H870.381V123.667H867.148V126.096H870.381V156.367H867.148V158.796H870.381V189.068H867.148V191.495H870.381V221.768H867.148V224.197H870.381V248.934H852.433V153.343H780.219V222.882H768.494V6.25523H759.82V11.8317L743.813 15.7711V12.1486H735.14V17.9053L719.132 21.8447V17.692H710.456V23.9803L694.451 27.9197V24.4939H685.775V30.0554L669.771 33.9949V31.0436H661.094V243.776H648.891V130.361H603.691V200.103H557.352V140.631H551.645V121.099H555.034V119.138H540.037V112.998H538.437V119.138H533.643V87.6147H532.443V119.138H526.195V121.099H529.871V140.631H499.289V185.998H469.517L453.966 243.776H422.768V55.1337H381.462V48.3768H383.808V46.0038H352.521V48.3768H354.981V195.197H335.503V146.383H342.427V141.964H293.416V112.474H284.069V106.414H263.198V112.474H246.218V217.773H190.511V139.677H143.604V201.361H102.898V240.827H73.5452V191.212H34.9479V233.513H0V263.457H1440V234.95H1392.34Z" fill="#FFFBF7"/>
</svg>
