<svg width="35" height="35" viewBox="0 0 35 35" fill="none" xmlns="http://www.w3.org/2000/svg">
<path fill-rule="evenodd" clip-rule="evenodd" d="M8.05313 0H26.9469C31.3761 0 35 3.62387 35 8.05313V26.9469C35 31.3761 31.3761 35 26.9469 35H8.05313C3.62387 35 0 31.3761 0 26.9469V8.05313C0 3.62387 3.62387 0 8.05313 0V0ZM17.5509 23.2977C17.6696 21.8702 19.088 16.2775 19.4391 15.142C20.0112 13.2913 21.1389 9.6693 22.8586 8.51764L23.9201 9.9058C25.9072 12.88 27.1748 17.31 27.7704 20.9173C27.8658 21.4952 28.0715 22.5405 28.0846 23.1343C28.2344 23.0245 28.3951 22.5211 28.5448 21.8581C29.6767 16.8474 29.4546 11.6322 26.277 7.38568C25.8184 6.77285 25.2809 6.16997 24.7172 5.67905C24.1756 5.20735 23.6422 4.60444 22.8586 4.18983C21.9383 4.67681 21.7273 5.04725 21.191 5.46191C20.7466 5.80561 20.1581 6.51835 19.7741 6.98461C19.1687 7.71941 17.7069 9.9908 17.6325 10.8858C17.5434 10.7315 17.1504 9.85998 16.8796 9.34474C16.0933 7.84837 15.0339 6.48346 13.8167 5.31106C13.5472 5.05142 12.5816 4.2803 12.2431 4.18986C11.9175 4.4079 11.6238 4.61985 11.2969 4.87681C10.5424 5.46969 9.84792 6.1585 9.24055 6.90339C5.60569 11.3449 5.12788 16.5578 6.63786 21.9081C6.8016 22.4883 6.97689 23.0125 7.09866 23.1343C7.09866 21.9017 8.50998 16.1429 8.84184 14.997C9.32715 13.321 10.4524 9.46524 12.2431 8.5177C13.4713 9.16753 14.5482 11.8691 15.3474 14.2925C15.794 15.6464 17.4386 22.9413 17.551 23.2977L17.5509 23.2977ZM22.777 12.0289C22.5274 13.1005 22.4057 14.5673 22.2171 15.7153C22.1111 16.3607 21.9901 16.8552 21.8584 17.4797C21.6934 18.2621 21.4708 19.0422 21.229 19.8153C21.0433 20.4095 20.8459 20.9996 20.6548 21.5837C20.3478 22.3518 20.0619 23.0923 19.6739 23.7788C19.2226 24.6861 18.4184 26.0647 17.5509 26.6456C16.8102 26.1496 15.909 24.5437 15.4811 23.6518C15.391 23.4639 15.348 23.304 15.2644 23.1552C14.9885 22.5549 14.7542 21.8892 14.5399 21.2458C14.4269 20.9067 14.3183 20.5793 14.213 20.2662C14.1068 19.9507 14.0087 19.4791 13.8763 19.2272L13.0254 15.6562C12.8979 15.0117 12.7623 14.4171 12.6623 13.8144C12.5603 13.2 12.4602 12.4469 12.3248 11.8656C12.2026 12.0062 12.2277 11.9714 12.1478 12.1787C10.9523 15.2774 10.6946 19.9421 11.7848 23.1446C12.8364 26.2329 14.997 29.1002 17.5509 30.8101C19.6176 29.6169 21.911 26.4 23.1291 23.239C24.0277 20.907 24.4529 13.9569 22.777 12.0289H22.777Z" fill="#FFFBF7"/>
</svg>
