<svg width="234" height="49" viewBox="0 0 234 49" fill="none" xmlns="http://www.w3.org/2000/svg">
<g clip-path="url(#clip0)">
<path fill-rule="evenodd" clip-rule="evenodd" d="M11.1872 0H37.4341C43.587 0 48.6213 5.03415 48.6213 11.1872V37.4341C48.6213 43.587 43.587 48.6213 37.4341 48.6213H11.1872C5.03415 48.6213 0 43.587 0 37.4341V11.1872C0 5.03415 5.03415 0 11.1872 0V0ZM24.3813 32.3647C24.5462 30.3815 26.5167 22.6123 27.0044 21.035C27.7992 18.4641 29.3656 13.4324 31.7547 11.8326L33.2294 13.761C35.9898 17.8927 37.7507 24.0468 38.5781 29.058C38.7107 29.8607 38.9964 31.313 39.0147 32.1377C39.2228 31.9852 39.446 31.2859 39.6539 30.3649C41.2263 23.4042 40.9178 16.1593 36.5034 10.2601C35.8662 9.40881 35.1197 8.57125 34.3367 7.88931C33.5843 7.23401 32.8432 6.39645 31.7547 5.82053C30.4763 6.49698 30.1831 7.01166 29.4381 7.58771C28.8206 8.06518 28.003 9.05525 27.4697 9.70297C26.6287 10.7237 24.5981 13.8791 24.4947 15.1225C24.3709 14.9082 23.8249 13.6974 23.4489 12.9817C22.3566 10.903 20.8847 9.00681 19.1939 7.37816C18.8196 7.01741 17.4782 5.94626 17.0079 5.82053C16.5556 6.12344 16.1476 6.41786 15.6935 6.77482C14.6453 7.59842 13.6806 8.55532 12.8369 9.59017C7.78747 15.7602 7.12369 23.0019 9.22132 30.4344C9.44877 31.2404 9.69227 31.9687 9.86148 32.1377C9.86148 30.4254 11.822 22.4254 12.283 20.8337C12.9573 18.5053 14.5204 13.1491 17.008 11.8327C18.7142 12.7354 20.2102 16.4884 21.3204 19.855C21.9408 21.7359 24.2254 31.8697 24.3816 32.3649L24.3813 32.3647ZM31.6413 16.7103C31.2946 18.1989 31.1255 20.2366 30.8636 21.8313C30.7163 22.7279 30.5481 23.4148 30.3652 24.2824C30.1359 25.3693 29.8268 26.453 29.4908 27.5269C29.2328 28.3523 28.9586 29.1722 28.6931 29.9836C28.2665 31.0505 27.8695 32.0791 27.3305 33.0329C26.7035 34.2932 25.5864 36.2083 24.3812 37.0153C23.3522 36.3264 22.1003 34.0953 21.5059 32.8564C21.3807 32.5952 21.3211 32.3731 21.2049 32.1663C20.8216 31.3324 20.4962 30.4078 20.1985 29.5139C20.0414 29.0429 19.8906 28.588 19.7442 28.1531C19.5967 27.7148 19.4605 27.0597 19.2766 26.7098L18.0944 21.749C17.9173 20.8538 17.7291 20.0277 17.5901 19.1905C17.4484 18.3369 17.3092 17.2908 17.1212 16.4833C16.9515 16.6785 16.9863 16.6302 16.8754 16.9182C15.2146 21.2229 14.8566 27.7029 16.3711 32.1518C17.832 36.442 20.8335 40.4253 24.3813 42.8006C27.2523 41.143 30.4383 36.6743 32.1304 32.2831C33.3787 29.0434 33.9694 19.3885 31.6413 16.7102V16.7103Z" fill="#FFFBF7"/>
<path d="M93.4671 4.65381L80.8555 24.2291L68.2988 4.65381H60.0191V43.585H68.2988V19.4586L79.3202 36.8955H82.4457L93.4671 19.4586V43.585H101.747V4.65381H93.4671Z" fill="#FFFBF7"/>
<path d="M132.332 30.0957C132.332 22.0353 127.068 15.2908 118.459 15.2908C109.96 15.2908 104.586 21.8707 104.586 29.5473C104.586 37.4433 110.234 44.1328 118.953 44.1328C126.849 44.1328 131.18 38.4302 131.838 34.7015L124.655 33.9338C123.613 35.4691 121.694 36.7851 119.007 36.7851C114.731 36.7851 113.031 34.4272 112.866 32.234H132.332V30.0955V30.0957ZM118.459 22.6384C121.804 22.6384 123.888 24.5027 124.052 26.5864H112.866C113.031 24.4479 115.169 22.6384 118.459 22.6384Z" fill="#FFFBF7"/>
<path d="M154.525 15.8391L147.287 34.7564L140.049 15.8391H130.782L142.461 43.5844H152.112L163.791 15.8391H154.525Z" fill="#FFFBF7"/>
<path d="M168.605 12.4937C170.853 12.4937 172.608 10.739 172.608 8.49086C172.608 6.24268 170.853 4.48804 168.605 4.48804C166.357 4.48804 164.602 6.24268 164.602 8.49086C164.602 10.739 166.357 12.4937 168.605 12.4937ZM172.772 15.8385H164.492V43.5838H172.772V15.8385Z" fill="#FFFBF7"/>
<path d="M194.418 15.2908C190.579 15.2908 187.235 17.0454 184.493 19.4581L183.999 15.8391H176.213V43.5844H184.493V30.0408C184.712 25.2704 187.673 23.0771 191.018 23.0771C194.308 23.0771 196.172 24.9414 196.172 31.0279V43.5846H204.507V27.0799C204.507 19.6775 201.272 15.2908 194.418 15.2908H194.418Z" fill="#FFFBF7"/>
<path d="M233.829 30.0957C233.829 22.0353 228.565 15.2908 219.957 15.2908C211.458 15.2908 206.084 21.8707 206.084 29.5473C206.084 37.4433 211.732 44.1328 220.45 44.1328C228.346 44.1328 232.678 38.4302 233.336 34.7015L226.153 33.9338C225.111 35.4691 223.192 36.7851 220.505 36.7851C216.228 36.7851 214.528 34.4272 214.364 32.234H233.829V30.0955V30.0957ZM219.957 22.6384C223.301 22.6384 225.385 24.5027 225.55 26.5864H214.364C214.528 24.4479 216.667 22.6384 219.957 22.6384Z" fill="#6666FF"/>
</g>
<defs>
<clipPath id="clip0">
<rect width="233.829" height="48.6213" fill="white"/>
</clipPath>
</defs>
</svg>
