<svg width="15" height="23" viewBox="0 0 15 23" fill="none" xmlns="http://www.w3.org/2000/svg">
<path d="M7.5 22.6111C5.65822 22.6111 3.89187 21.8795 2.58954 20.5772C1.2872 19.2748 0.555557 17.5085 0.555557 15.6667V7.33336C0.555557 5.49158 1.2872 3.72523 2.58954 2.4229C3.89187 1.12056 5.65822 0.388916 7.5 0.388916C9.34178 0.388916 11.1081 1.12056 12.4105 2.4229C13.7128 3.72523 14.4444 5.49158 14.4444 7.33336V15.6667C14.4444 16.5787 14.2648 17.4817 13.9158 18.3242C13.5668 19.1668 13.0553 19.9323 12.4105 20.5772C11.7656 21.222 11.0001 21.7335 10.1575 22.0825C9.31499 22.4315 8.41196 22.6111 7.5 22.6111ZM7.5 1.7778C6.02658 1.7778 4.6135 2.36312 3.57163 3.40499C2.52976 4.44686 1.94445 5.85994 1.94445 7.33336V15.6667C1.94445 17.1401 2.52976 18.5532 3.57163 19.5951C4.6135 20.6369 6.02658 21.2222 7.5 21.2222C8.97343 21.2222 10.3865 20.6369 11.4284 19.5951C12.4702 18.5532 13.0556 17.1401 13.0556 15.6667V7.33336C13.0556 5.85994 12.4702 4.44686 11.4284 3.40499C10.3865 2.36312 8.97343 1.7778 7.5 1.7778Z" fill="#2E252F"/>
<path d="M7.5 9.41667C7.31582 9.41667 7.13919 9.3435 7.00895 9.21327C6.87872 9.08303 6.80556 8.9064 6.80556 8.72222V5.94444C6.80556 5.76027 6.87872 5.58363 7.00895 5.4534C7.13919 5.32316 7.31582 5.25 7.5 5.25C7.68418 5.25 7.86081 5.32316 7.99105 5.4534C8.12128 5.58363 8.19444 5.76027 8.19444 5.94444V8.72222C8.19444 8.9064 8.12128 9.08303 7.99105 9.21327C7.86081 9.3435 7.68418 9.41667 7.5 9.41667Z" fill="#2E252F"/>
</svg>
